<mxfile host="app.diagrams.net" modified="2023-03-14T07:30:44.906Z" agent="5.0 (X11)" etag="pODTXr6xOkTKq2I71w7x" version="21.0.6" type="github">
  <diagram name="Page-1" id="egMSPYv_KX4Kz8XEBmO2">
    <mxGraphModel dx="880" dy="1579" grid="1" gridSize="4" guides="1" tooltips="1" connect="1" arrows="1" fold="1" page="1" pageScale="1" pageWidth="850" pageHeight="1100" background="none" math="0" shadow="0">
      <root>
        <mxCell id="0" />
        <mxCell id="1" parent="0" />
        <mxCell id="pfBT98k8DVhlA3sYka80-1" value="" style="rounded=0;whiteSpace=wrap;html=1;fillColor=#0D1117;" vertex="1" parent="1">
          <mxGeometry x="32" y="-96" width="1280" height="640" as="geometry" />
        </mxCell>
        <mxCell id="nL69cGTU7N5PR8f_p0Is-1" value="" style="rounded=0;whiteSpace=wrap;html=1;fillColor=#B3B3B3;strokeColor=#666666;gradientColor=#b3b3b3;" parent="1" vertex="1">
          <mxGeometry x="828" y="21" width="364" height="435" as="geometry" />
        </mxCell>
        <mxCell id="FkkPFLlIcoBWppN_FDq2-97" value="" style="endArrow=none;html=1;rounded=0;strokeWidth=3;strokeColor=#FF4949;" parent="1" edge="1">
          <mxGeometry width="50" height="50" relative="1" as="geometry">
            <mxPoint x="958" y="474" as="sourcePoint" />
            <mxPoint x="958" y="149" as="targetPoint" />
          </mxGeometry>
        </mxCell>
        <mxCell id="nL69cGTU7N5PR8f_p0Is-21" value="" style="endArrow=none;html=1;rounded=0;strokeColor=#0080ff;strokeWidth=2;entryX=0.5;entryY=0;entryDx=0;entryDy=0;exitX=0.75;exitY=1;exitDx=0;exitDy=0;" parent="1" source="nL69cGTU7N5PR8f_p0Is-15" target="nL69cGTU7N5PR8f_p0Is-20" edge="1">
          <mxGeometry width="50" height="50" relative="1" as="geometry">
            <mxPoint x="924" y="118" as="sourcePoint" />
            <mxPoint x="958" y="203" as="targetPoint" />
          </mxGeometry>
        </mxCell>
        <mxCell id="J5Gs9Op7dkJU3k7fwKM5-35" value="" style="endArrow=classic;html=1;rounded=0;strokeColor=#0080ff;strokeWidth=3;entryX=0;entryY=0.5;entryDx=0;entryDy=0;exitX=1;exitY=0.5;exitDx=0;exitDy=0;exitPerimeter=0;" parent="1" source="UMifehnFGFl9r4CTKI45-1" target="J5Gs9Op7dkJU3k7fwKM5-32" edge="1">
          <mxGeometry width="50" height="50" relative="1" as="geometry">
            <mxPoint x="72" y="50" as="sourcePoint" />
            <mxPoint x="144" y="218" as="targetPoint" />
          </mxGeometry>
        </mxCell>
        <mxCell id="J5Gs9Op7dkJU3k7fwKM5-1" value="" style="rounded=0;whiteSpace=wrap;html=1;fillColor=#ffe6cc;strokeColor=#d79b00;" parent="1" vertex="1">
          <mxGeometry x="448" y="16" width="232" height="304" as="geometry" />
        </mxCell>
        <mxCell id="UMifehnFGFl9r4CTKI45-20" value="" style="endArrow=classic;html=1;rounded=0;strokeColor=#0080FF;strokeWidth=3;fontFamily=Helvetica;entryX=0;entryY=0.5;entryDx=0;entryDy=0;startArrow=none;" parent="1" source="UMifehnFGFl9r4CTKI45-21" target="SulHl8hZRRqjcG4e_9Le-1" edge="1">
          <mxGeometry width="50" height="50" relative="1" as="geometry">
            <mxPoint x="156" y="52" as="sourcePoint" />
            <mxPoint x="364" y="50" as="targetPoint" />
          </mxGeometry>
        </mxCell>
        <mxCell id="UMifehnFGFl9r4CTKI45-21" value="Commit" style="text;html=1;strokeColor=#6c8ebf;fillColor=#dae8fc;align=center;verticalAlign=middle;whiteSpace=wrap;rounded=0;fontFamily=Helvetica;fontStyle=1" parent="1" vertex="1">
          <mxGeometry x="248" y="35" width="60" height="30" as="geometry" />
        </mxCell>
        <mxCell id="UMifehnFGFl9r4CTKI45-1" value="" style="html=1;verticalLabelPosition=bottom;align=center;labelBackgroundColor=#ffffff;verticalAlign=top;strokeWidth=2;strokeColor=#0080F0;shadow=0;dashed=0;shape=mxgraph.ios7.icons.user;fillColor=none;" parent="1" vertex="1">
          <mxGeometry x="48" y="26" width="48" height="48" as="geometry" />
        </mxCell>
        <mxCell id="UMifehnFGFl9r4CTKI45-57" value="&lt;font color=&quot;#0080FF&quot;&gt;Coder&lt;/font&gt;" style="text;html=1;strokeColor=none;fillColor=none;align=center;verticalAlign=middle;whiteSpace=wrap;rounded=0;fontFamily=Helvetica;fontStyle=1" parent="1" vertex="1">
          <mxGeometry x="42" y="74" width="60" height="30" as="geometry" />
        </mxCell>
        <mxCell id="UMifehnFGFl9r4CTKI45-58" value="&lt;font color=&quot;#0080FF&quot;&gt;GitHub&lt;/font&gt;" style="text;html=1;strokeColor=none;fillColor=none;align=center;verticalAlign=middle;whiteSpace=wrap;rounded=0;fontFamily=Helvetica;fontStyle=1" parent="1" vertex="1">
          <mxGeometry x="356" y="76" width="60" height="30" as="geometry" />
        </mxCell>
        <mxCell id="J5Gs9Op7dkJU3k7fwKM5-4" value="&lt;b&gt;Fetch&lt;/b&gt;" style="text;html=1;strokeColor=#6c8ebf;fillColor=#dae8fc;align=center;verticalAlign=middle;whiteSpace=wrap;rounded=0;" parent="1" vertex="1">
          <mxGeometry x="465" y="42" width="92" height="16" as="geometry" />
        </mxCell>
        <mxCell id="J5Gs9Op7dkJU3k7fwKM5-10" value="" style="endArrow=classic;html=1;rounded=0;strokeColor=#0080ff;strokeWidth=2;exitX=0;exitY=0.5;exitDx=0;exitDy=0;entryX=1;entryY=0.5;entryDx=0;entryDy=0;" parent="1" source="J5Gs9Op7dkJU3k7fwKM5-4" target="SulHl8hZRRqjcG4e_9Le-1" edge="1">
          <mxGeometry width="50" height="50" relative="1" as="geometry">
            <mxPoint x="608" y="276" as="sourcePoint" />
            <mxPoint x="412" y="50" as="targetPoint" />
          </mxGeometry>
        </mxCell>
        <mxCell id="J5Gs9Op7dkJU3k7fwKM5-13" value="" style="endArrow=classic;html=1;rounded=0;strokeColor=#0080ff;strokeWidth=2;exitX=0.5;exitY=1;exitDx=0;exitDy=0;startArrow=none;entryX=0.75;entryY=0;entryDx=0;entryDy=0;" parent="1" source="J5Gs9Op7dkJU3k7fwKM5-11" target="sGVQRTdD7NmLHFWW4TRz-1" edge="1">
          <mxGeometry width="50" height="50" relative="1" as="geometry">
            <mxPoint x="496" y="275" as="sourcePoint" />
            <mxPoint x="422" y="128" as="targetPoint" />
          </mxGeometry>
        </mxCell>
        <mxCell id="J5Gs9Op7dkJU3k7fwKM5-11" value="&lt;b&gt;Pass&lt;/b&gt;" style="text;html=1;strokeColor=#00D100;fillColor=#4CAF50;align=center;verticalAlign=middle;whiteSpace=wrap;rounded=0;fontColor=#ffffff;" parent="1" vertex="1">
          <mxGeometry x="514" y="96" width="40" height="16" as="geometry" />
        </mxCell>
        <mxCell id="J5Gs9Op7dkJU3k7fwKM5-15" value="" style="endArrow=none;html=1;rounded=0;strokeColor=#0080ff;strokeWidth=2;exitX=0.75;exitY=1;exitDx=0;exitDy=0;entryX=0.5;entryY=0;entryDx=0;entryDy=0;" parent="1" source="J5Gs9Op7dkJU3k7fwKM5-4" target="J5Gs9Op7dkJU3k7fwKM5-11" edge="1">
          <mxGeometry width="50" height="50" relative="1" as="geometry">
            <mxPoint x="504" y="63" as="sourcePoint" />
            <mxPoint x="504" y="143" as="targetPoint" />
          </mxGeometry>
        </mxCell>
        <mxCell id="J5Gs9Op7dkJU3k7fwKM5-22" value="" style="endArrow=classic;html=1;rounded=0;strokeColor=#0080ff;strokeWidth=2;exitX=0.5;exitY=1;exitDx=0;exitDy=0;entryX=0.75;entryY=0;entryDx=0;entryDy=0;startArrow=none;" parent="1" source="J5Gs9Op7dkJU3k7fwKM5-23" target="sGVQRTdD7NmLHFWW4TRz-2" edge="1">
          <mxGeometry width="50" height="50" relative="1" as="geometry">
            <mxPoint x="496" y="211" as="sourcePoint" />
            <mxPoint x="534.5" y="240" as="targetPoint" />
          </mxGeometry>
        </mxCell>
        <mxCell id="J5Gs9Op7dkJU3k7fwKM5-23" value="&lt;b&gt;Pass&lt;/b&gt;" style="text;html=1;strokeColor=#00D100;fillColor=#4CAF50;align=center;verticalAlign=middle;whiteSpace=wrap;rounded=0;fontColor=#ffffff;" parent="1" vertex="1">
          <mxGeometry x="514" y="192" width="40" height="16" as="geometry" />
        </mxCell>
        <mxCell id="J5Gs9Op7dkJU3k7fwKM5-24" value="" style="endArrow=none;html=1;rounded=0;strokeColor=#0080ff;strokeWidth=2;entryX=0.5;entryY=0;entryDx=0;entryDy=0;exitX=0.75;exitY=1;exitDx=0;exitDy=0;" parent="1" source="sGVQRTdD7NmLHFWW4TRz-1" target="J5Gs9Op7dkJU3k7fwKM5-23" edge="1">
          <mxGeometry width="50" height="50" relative="1" as="geometry">
            <mxPoint x="418" y="157" as="sourcePoint" />
            <mxPoint x="504" y="223" as="targetPoint" />
          </mxGeometry>
        </mxCell>
        <mxCell id="nL69cGTU7N5PR8f_p0Is-41" value="" style="rounded=0;whiteSpace=wrap;html=1;fontSize=12;strokeColor=#9673a6;fillColor=#e1d5e7;" parent="1" vertex="1">
          <mxGeometry x="848" y="60" width="96" height="360" as="geometry" />
        </mxCell>
        <mxCell id="J5Gs9Op7dkJU3k7fwKM5-26" value="" style="endArrow=classic;html=1;rounded=0;strokeColor=#0080ff;strokeWidth=3;entryX=0.5;entryY=0;entryDx=0;entryDy=0;startArrow=none;exitX=1;exitY=0.5;exitDx=0;exitDy=0;" parent="1" source="J5Gs9Op7dkJU3k7fwKM5-27" target="J5Gs9Op7dkJU3k7fwKM5-48" edge="1">
          <mxGeometry width="50" height="50" relative="1" as="geometry">
            <mxPoint x="286" y="-16" as="sourcePoint" />
            <mxPoint x="711.73" y="18" as="targetPoint" />
            <Array as="points">
              <mxPoint x="656" y="-19" />
            </Array>
          </mxGeometry>
        </mxCell>
        <mxCell id="J5Gs9Op7dkJU3k7fwKM5-27" value="Webhook Trigger" style="text;html=1;strokeColor=#6c8ebf;fillColor=#dae8fc;align=center;verticalAlign=middle;whiteSpace=wrap;rounded=0;fontFamily=Helvetica;fontStyle=1" parent="1" vertex="1">
          <mxGeometry x="446" y="-34" width="134" height="30" as="geometry" />
        </mxCell>
        <mxCell id="J5Gs9Op7dkJU3k7fwKM5-28" value="" style="endArrow=none;html=1;rounded=0;strokeColor=#0080ff;strokeWidth=3;exitX=0.5;exitY=0;exitDx=0;exitDy=0;entryX=0;entryY=0.5;entryDx=0;entryDy=0;" parent="1" source="SulHl8hZRRqjcG4e_9Le-1" target="J5Gs9Op7dkJU3k7fwKM5-27" edge="1">
          <mxGeometry width="50" height="50" relative="1" as="geometry">
            <mxPoint x="388" y="26" as="sourcePoint" />
            <mxPoint x="232" y="-20" as="targetPoint" />
            <Array as="points">
              <mxPoint x="388" y="-19" />
            </Array>
          </mxGeometry>
        </mxCell>
        <mxCell id="J5Gs9Op7dkJU3k7fwKM5-31" value="" style="shape=image;imageAspect=0;aspect=fixed;verticalLabelPosition=bottom;verticalAlign=top;strokeColor=#00D100;fillColor=#00CC00;image=https://upload.wikimedia.org/wikipedia/commons/thumb/e/e0/Git-logo.svg/512px-Git-logo.svg.png?20160811101906;" parent="1" vertex="1">
          <mxGeometry x="562" y="38" width="58" height="24" as="geometry" />
        </mxCell>
        <mxCell id="J5Gs9Op7dkJU3k7fwKM5-32" value="" style="shape=image;imageAspect=0;aspect=fixed;verticalLabelPosition=bottom;verticalAlign=top;strokeColor=#00D100;fillColor=#00CC00;image=https://raw.githubusercontent.com/vital987/vital987/master/assets/git.svg;" parent="1" vertex="1">
          <mxGeometry x="160" y="26" width="48" height="48" as="geometry" />
        </mxCell>
        <mxCell id="J5Gs9Op7dkJU3k7fwKM5-34" value="&lt;font color=&quot;#0080FF&quot;&gt;Git&lt;/font&gt;" style="text;html=1;strokeColor=none;fillColor=none;align=center;verticalAlign=middle;whiteSpace=wrap;rounded=0;fontFamily=Helvetica;fontStyle=1" parent="1" vertex="1">
          <mxGeometry x="154" y="74" width="60" height="30" as="geometry" />
        </mxCell>
        <mxCell id="J5Gs9Op7dkJU3k7fwKM5-36" value="" style="shape=image;imageAspect=0;aspect=fixed;verticalLabelPosition=bottom;verticalAlign=top;strokeColor=#00D100;fillColor=#00CC00;image=https://upload.wikimedia.org/wikipedia/commons/thumb/5/52/Apache_Maven_logo.svg/340px-Apache_Maven_logo.svg.png?20190703111750;" parent="1" vertex="1">
          <mxGeometry x="562" y="142" width="84" height="22" as="geometry" />
        </mxCell>
        <mxCell id="J5Gs9Op7dkJU3k7fwKM5-38" value="" style="shape=image;imageAspect=0;aspect=fixed;verticalLabelPosition=bottom;verticalAlign=top;strokeColor=#00D100;fillColor=#00CC00;image=https://upload.wikimedia.org/wikipedia/commons/thumb/5/59/JUnit_5_Banner.png/799px-JUnit_5_Banner.png?20211216140742;" parent="1" vertex="1">
          <mxGeometry x="562" y="222" width="78" height="24" as="geometry" />
        </mxCell>
        <mxCell id="J5Gs9Op7dkJU3k7fwKM5-41" value="" style="endArrow=none;html=1;rounded=0;strokeColor=#0080ff;strokeWidth=2;exitX=0.75;exitY=1;exitDx=0;exitDy=0;" parent="1" source="sGVQRTdD7NmLHFWW4TRz-2" target="J5Gs9Op7dkJU3k7fwKM5-40" edge="1">
          <mxGeometry width="50" height="50" relative="1" as="geometry">
            <mxPoint x="534.5" y="256" as="sourcePoint" />
            <mxPoint x="784" y="434" as="targetPoint" />
            <Array as="points" />
          </mxGeometry>
        </mxCell>
        <mxCell id="J5Gs9Op7dkJU3k7fwKM5-42" value="" style="endArrow=classic;html=1;rounded=0;strokeColor=#0080ff;strokeWidth=3;exitX=0.5;exitY=0;exitDx=0;exitDy=0;startArrow=none;entryX=0;entryY=0.5;entryDx=0;entryDy=0;" parent="1" source="J5Gs9Op7dkJU3k7fwKM5-44" target="FkkPFLlIcoBWppN_FDq2-32" edge="1">
          <mxGeometry width="50" height="50" relative="1" as="geometry">
            <mxPoint x="648" y="262" as="sourcePoint" />
            <mxPoint x="932" y="-46" as="targetPoint" />
            <Array as="points">
              <mxPoint x="754" y="50" />
            </Array>
          </mxGeometry>
        </mxCell>
        <mxCell id="J5Gs9Op7dkJU3k7fwKM5-44" value="&lt;div&gt;Push artifact&lt;/div&gt;&lt;div&gt;&amp;amp;&lt;/div&gt;&lt;div&gt;execute playbook&lt;/div&gt;" style="text;html=1;strokeColor=#6c8ebf;fillColor=#dae8fc;align=center;verticalAlign=middle;whiteSpace=wrap;rounded=0;fontFamily=Helvetica;fontStyle=1" parent="1" vertex="1">
          <mxGeometry x="699" y="100" width="110" height="48" as="geometry" />
        </mxCell>
        <mxCell id="J5Gs9Op7dkJU3k7fwKM5-45" value="" style="endArrow=none;html=1;rounded=0;strokeColor=#0080ff;strokeWidth=3;exitX=1;exitY=0.5;exitDx=0;exitDy=0;entryX=0.5;entryY=1;entryDx=0;entryDy=0;" parent="1" source="J5Gs9Op7dkJU3k7fwKM5-40" target="J5Gs9Op7dkJU3k7fwKM5-44" edge="1">
          <mxGeometry width="50" height="50" relative="1" as="geometry">
            <mxPoint x="543.5" y="298" as="sourcePoint" />
            <mxPoint x="990" y="58" as="targetPoint" />
            <Array as="points">
              <mxPoint x="668" y="293" />
              <mxPoint x="668" y="224" />
              <mxPoint x="754" y="224" />
            </Array>
          </mxGeometry>
        </mxCell>
        <mxCell id="J5Gs9Op7dkJU3k7fwKM5-48" value="" style="shape=image;imageAspect=0;aspect=fixed;verticalLabelPosition=bottom;verticalAlign=top;strokeColor=#00D100;fillColor=#00CC00;image=https://upload.wikimedia.org/wikipedia/commons/e/e9/Jenkins_logo.svg;" parent="1" vertex="1">
          <mxGeometry x="634" y="18" width="44" height="60" as="geometry" />
        </mxCell>
        <mxCell id="J5Gs9Op7dkJU3k7fwKM5-49" value="&lt;b style=&quot;font-size: 12px;&quot;&gt;Jenkins&lt;/b&gt;" style="text;html=1;strokeColor=none;fillColor=none;align=center;verticalAlign=middle;whiteSpace=wrap;rounded=0;fontSize=12;" parent="1" vertex="1">
          <mxGeometry x="626" y="74" width="60" height="30" as="geometry" />
        </mxCell>
        <mxCell id="nL69cGTU7N5PR8f_p0Is-15" value="&lt;b&gt;Login&lt;/b&gt;" style="text;html=1;strokeColor=#6c8ebf;fillColor=#dae8fc;align=center;verticalAlign=middle;whiteSpace=wrap;rounded=0;" parent="1" vertex="1">
          <mxGeometry x="852" y="102" width="88" height="16" as="geometry" />
        </mxCell>
        <mxCell id="nL69cGTU7N5PR8f_p0Is-17" value="" style="shape=image;imageAspect=0;aspect=fixed;verticalLabelPosition=bottom;verticalAlign=top;fontSize=12;strokeColor=#00D100;fillColor=#A8A8A8;image=https://upload.wikimedia.org/wikipedia/commons/7/79/Docker_%28container_engine%29_logo.png;" parent="1" vertex="1">
          <mxGeometry x="851.97" y="67" width="88.06" height="21" as="geometry" />
        </mxCell>
        <mxCell id="nL69cGTU7N5PR8f_p0Is-18" value="&lt;b&gt;Build image including artifact&lt;/b&gt;" style="text;html=1;strokeColor=#6c8ebf;fillColor=#dae8fc;align=center;verticalAlign=middle;whiteSpace=wrap;rounded=0;" parent="1" vertex="1">
          <mxGeometry x="852" y="182" width="88" height="48" as="geometry" />
        </mxCell>
        <mxCell id="nL69cGTU7N5PR8f_p0Is-19" value="" style="endArrow=classic;html=1;rounded=0;strokeColor=#0080ff;strokeWidth=2;exitX=0.5;exitY=1;exitDx=0;exitDy=0;startArrow=none;entryX=0.25;entryY=0;entryDx=0;entryDy=0;" parent="1" source="nL69cGTU7N5PR8f_p0Is-20" target="nL69cGTU7N5PR8f_p0Is-18" edge="1">
          <mxGeometry width="50" height="50" relative="1" as="geometry">
            <mxPoint x="948" y="337" as="sourcePoint" />
            <mxPoint x="796" y="132" as="targetPoint" />
          </mxGeometry>
        </mxCell>
        <mxCell id="nL69cGTU7N5PR8f_p0Is-20" value="&lt;b&gt;Pass&lt;/b&gt;" style="text;html=1;strokeColor=#00D100;fillColor=#4CAF50;align=center;verticalAlign=middle;whiteSpace=wrap;rounded=0;fontColor=#ffffff;" parent="1" vertex="1">
          <mxGeometry x="854" y="142" width="40" height="16" as="geometry" />
        </mxCell>
        <mxCell id="nL69cGTU7N5PR8f_p0Is-31" value="" style="endArrow=none;html=1;rounded=0;strokeColor=#0080ff;strokeWidth=2;entryX=0.5;entryY=0;entryDx=0;entryDy=0;exitX=0.25;exitY=1;exitDx=0;exitDy=0;" parent="1" source="nL69cGTU7N5PR8f_p0Is-18" target="nL69cGTU7N5PR8f_p0Is-33" edge="1">
          <mxGeometry width="50" height="50" relative="1" as="geometry">
            <mxPoint x="806" y="272" as="sourcePoint" />
            <mxPoint x="999" y="317" as="targetPoint" />
          </mxGeometry>
        </mxCell>
        <mxCell id="nL69cGTU7N5PR8f_p0Is-32" value="" style="endArrow=classic;html=1;rounded=0;strokeColor=#0080ff;strokeWidth=2;exitX=0.5;exitY=1;exitDx=0;exitDy=0;startArrow=none;entryX=0.25;entryY=0;entryDx=0;entryDy=0;" parent="1" source="nL69cGTU7N5PR8f_p0Is-33" target="nL69cGTU7N5PR8f_p0Is-27" edge="1">
          <mxGeometry width="50" height="50" relative="1" as="geometry">
            <mxPoint x="948" y="425.5" as="sourcePoint" />
            <mxPoint x="804" y="286" as="targetPoint" />
          </mxGeometry>
        </mxCell>
        <mxCell id="nL69cGTU7N5PR8f_p0Is-33" value="&lt;b&gt;Pass&lt;/b&gt;" style="text;html=1;strokeColor=#00CC00;fillColor=#4CAF50;align=center;verticalAlign=middle;whiteSpace=wrap;rounded=0;fontColor=#ffffff;" parent="1" vertex="1">
          <mxGeometry x="854" y="254" width="40" height="16" as="geometry" />
        </mxCell>
        <mxCell id="nL69cGTU7N5PR8f_p0Is-35" value="&lt;b&gt;Logout&lt;/b&gt;" style="text;html=1;strokeColor=#6c8ebf;fillColor=#dae8fc;align=center;verticalAlign=middle;whiteSpace=wrap;rounded=0;" parent="1" vertex="1">
          <mxGeometry x="852" y="392" width="88" height="18" as="geometry" />
        </mxCell>
        <mxCell id="nL69cGTU7N5PR8f_p0Is-37" value="" style="endArrow=classic;html=1;rounded=0;fontSize=12;strokeColor=#0080ff;strokeWidth=2;entryX=0.25;entryY=0;entryDx=0;entryDy=0;startArrow=none;exitX=0.5;exitY=1;exitDx=0;exitDy=0;" parent="1" source="nL69cGTU7N5PR8f_p0Is-38" target="nL69cGTU7N5PR8f_p0Is-35" edge="1">
          <mxGeometry width="50" height="50" relative="1" as="geometry">
            <mxPoint x="800" y="380" as="sourcePoint" />
            <mxPoint x="970" y="326" as="targetPoint" />
          </mxGeometry>
        </mxCell>
        <mxCell id="nL69cGTU7N5PR8f_p0Is-40" value="" style="endArrow=none;html=1;rounded=0;fontSize=12;strokeColor=#0080ff;strokeWidth=2;exitX=0.25;exitY=1;exitDx=0;exitDy=0;entryX=0.5;entryY=0;entryDx=0;entryDy=0;" parent="1" source="nL69cGTU7N5PR8f_p0Is-27" target="nL69cGTU7N5PR8f_p0Is-38" edge="1">
          <mxGeometry width="50" height="50" relative="1" as="geometry">
            <mxPoint x="916" y="330" as="sourcePoint" />
            <mxPoint x="798" y="376" as="targetPoint" />
          </mxGeometry>
        </mxCell>
        <mxCell id="nL69cGTU7N5PR8f_p0Is-42" value="" style="endArrow=none;html=1;rounded=0;fontSize=12;strokeColor=#0080ff;strokeWidth=2;entryX=0.5;entryY=0;entryDx=0;entryDy=0;exitX=0.25;exitY=1;exitDx=0;exitDy=0;" parent="1" source="nL69cGTU7N5PR8f_p0Is-15" target="nL69cGTU7N5PR8f_p0Is-20" edge="1">
          <mxGeometry width="50" height="50" relative="1" as="geometry">
            <mxPoint x="922" y="208" as="sourcePoint" />
            <mxPoint x="972" y="158" as="targetPoint" />
          </mxGeometry>
        </mxCell>
        <mxCell id="nL69cGTU7N5PR8f_p0Is-44" value="" style="shape=image;imageAspect=0;aspect=fixed;verticalLabelPosition=bottom;verticalAlign=top;fontSize=12;strokeColor=#00D100;fillColor=#ADADAD;image=https://miro.medium.com/max/600/1*-kwlUjUzBCzFjeuD5eqBMw.png;" parent="1" vertex="1">
          <mxGeometry x="714" y="297" width="80" height="42" as="geometry" />
        </mxCell>
        <mxCell id="nL69cGTU7N5PR8f_p0Is-46" value="" style="endArrow=classic;html=1;rounded=0;fontSize=12;strokeColor=#0080ff;strokeWidth=3;exitX=0;exitY=0.5;exitDx=0;exitDy=0;entryX=0.775;entryY=0.5;entryDx=0;entryDy=0;entryPerimeter=0;" parent="1" source="nL69cGTU7N5PR8f_p0Is-27" target="nL69cGTU7N5PR8f_p0Is-44" edge="1">
          <mxGeometry width="50" height="50" relative="1" as="geometry">
            <mxPoint x="922" y="238" as="sourcePoint" />
            <mxPoint x="972" y="188" as="targetPoint" />
          </mxGeometry>
        </mxCell>
        <mxCell id="nL69cGTU7N5PR8f_p0Is-47" value="&lt;font color=&quot;#0080FF&quot;&gt;&lt;b&gt;Container Registry&lt;br&gt;&lt;/b&gt;&lt;/font&gt;" style="text;html=1;strokeColor=none;fillColor=none;align=center;verticalAlign=middle;whiteSpace=wrap;rounded=0;fontSize=12;" parent="1" vertex="1">
          <mxGeometry x="726" y="338" width="60" height="30" as="geometry" />
        </mxCell>
        <mxCell id="nL69cGTU7N5PR8f_p0Is-50" value="" style="rounded=0;whiteSpace=wrap;html=1;fontSize=12;strokeColor=#9673a6;fillColor=#e1d5e7;" parent="1" vertex="1">
          <mxGeometry x="968" y="127" width="208" height="293" as="geometry" />
        </mxCell>
        <mxCell id="FkkPFLlIcoBWppN_FDq2-4" value="" style="shape=image;imageAspect=0;aspect=fixed;verticalLabelPosition=bottom;verticalAlign=top;image=https://upload.wikimedia.org/wikipedia/commons/6/67/Kubernetes_logo.svg;" parent="1" vertex="1">
          <mxGeometry x="1004.1700000000001" y="132" width="135.65" height="24" as="geometry" />
        </mxCell>
        <mxCell id="FkkPFLlIcoBWppN_FDq2-14" value="" style="endArrow=classic;html=1;rounded=0;fontSize=12;strokeColor=#0080ff;strokeWidth=2;exitX=0.25;exitY=0;exitDx=0;exitDy=0;entryX=0.25;entryY=1;entryDx=0;entryDy=0;startArrow=none;" parent="1" source="FkkPFLlIcoBWppN_FDq2-8" target="nL69cGTU7N5PR8f_p0Is-59" edge="1">
          <mxGeometry width="50" height="50" relative="1" as="geometry">
            <mxPoint x="999" y="240" as="sourcePoint" />
            <mxPoint x="801" y="299" as="targetPoint" />
          </mxGeometry>
        </mxCell>
        <mxCell id="FkkPFLlIcoBWppN_FDq2-16" value="" style="endArrow=classic;html=1;rounded=0;fontSize=12;strokeColor=#0080ff;strokeWidth=2;exitX=0.75;exitY=0;exitDx=0;exitDy=0;entryX=0.75;entryY=1;entryDx=0;entryDy=0;startArrow=none;" parent="1" source="FkkPFLlIcoBWppN_FDq2-85" target="FkkPFLlIcoBWppN_FDq2-86" edge="1">
          <mxGeometry width="50" height="50" relative="1" as="geometry">
            <mxPoint x="1145" y="240" as="sourcePoint" />
            <mxPoint x="1145" y="214" as="targetPoint" />
          </mxGeometry>
        </mxCell>
        <mxCell id="FkkPFLlIcoBWppN_FDq2-25" value="" style="endArrow=classic;html=1;rounded=0;fontSize=12;strokeColor=#0080ff;strokeWidth=2;exitX=0.5;exitY=1;exitDx=0;exitDy=0;entryX=0.5;entryY=1;entryDx=0;entryDy=0;startArrow=none;" parent="1" source="nL69cGTU7N5PR8f_p0Is-35" target="nL69cGTU7N5PR8f_p0Is-60" edge="1">
          <mxGeometry width="50" height="50" relative="1" as="geometry">
            <mxPoint x="1000" y="256" as="sourcePoint" />
            <mxPoint x="1000" y="230" as="targetPoint" />
            <Array as="points">
              <mxPoint x="896" y="444" />
              <mxPoint x="1072" y="444" />
            </Array>
          </mxGeometry>
        </mxCell>
        <mxCell id="FkkPFLlIcoBWppN_FDq2-27" value="" style="endArrow=none;html=1;rounded=0;strokeWidth=2;strokeColor=#E8201A;exitX=0;exitY=0.25;exitDx=0;exitDy=0;entryX=0.5;entryY=1;entryDx=0;entryDy=0;" parent="1" source="nL69cGTU7N5PR8f_p0Is-60" target="sGVQRTdD7NmLHFWW4TRz-4" edge="1">
          <mxGeometry width="50" height="50" relative="1" as="geometry">
            <mxPoint x="1031" y="372" as="sourcePoint" />
            <mxPoint x="999" y="348" as="targetPoint" />
            <Array as="points">
              <mxPoint x="999" y="360" />
            </Array>
          </mxGeometry>
        </mxCell>
        <mxCell id="FkkPFLlIcoBWppN_FDq2-30" value="" style="endArrow=none;html=1;rounded=0;fontSize=12;strokeColor=#0080ff;strokeWidth=2;exitX=1;exitY=0.25;exitDx=0;exitDy=0;entryX=0.5;entryY=1;entryDx=0;entryDy=0;" parent="1" source="nL69cGTU7N5PR8f_p0Is-60" target="FkkPFLlIcoBWppN_FDq2-28" edge="1">
          <mxGeometry width="50" height="50" relative="1" as="geometry">
            <mxPoint x="1111" y="372" as="sourcePoint" />
            <mxPoint x="1145" y="312" as="targetPoint" />
            <Array as="points">
              <mxPoint x="1145" y="360" />
            </Array>
          </mxGeometry>
        </mxCell>
        <mxCell id="FkkPFLlIcoBWppN_FDq2-32" value="" style="shape=image;imageAspect=0;aspect=fixed;verticalLabelPosition=bottom;verticalAlign=top;fontSize=12;strokeColor=#00D100;fillColor=#A8A8A8;image=https://upload.wikimedia.org/wikipedia/commons/3/34/Cib-ansible_%28CoreUI_Icons_v1.0.0%29.svg;" parent="1" vertex="1">
          <mxGeometry x="1139" y="25" width="50" height="50" as="geometry" />
        </mxCell>
        <mxCell id="FkkPFLlIcoBWppN_FDq2-33" value="&lt;b&gt;Ansible&lt;/b&gt;" style="text;html=1;strokeColor=none;fillColor=none;align=center;verticalAlign=middle;whiteSpace=wrap;rounded=0;fontSize=12;" parent="1" vertex="1">
          <mxGeometry x="1134" y="75" width="60" height="30" as="geometry" />
        </mxCell>
        <mxCell id="FkkPFLlIcoBWppN_FDq2-35" value="" style="shape=image;imageAspect=0;aspect=fixed;verticalLabelPosition=bottom;verticalAlign=top;fontFamily=Helvetica;fillColor=#DAE8FC;image=data:image/png,iVBORw0KGgoAAAANSUhEUgAAAgAAAAIACAYAAAD0eNT6AABfl0lEQVR42u29d5RexZUt3sLGgQEvB+Y34zVvHMZ+9thvnsfzkEGAyVFEY4IBgxAYMFERlDNKCCEJhRaSUEA5IAlllJGEcg4o59D9dc7p61C/2hcJg9StTrfi3Xutvd4fb4z6u7dunVOnztk7IYEgCIIgCIIgCIIgCIIgCIIgCIIgCIIgCIIgCIIgCIIgCIIgCIIgCIIgCIIgCB0QQnxb8irJZyUHSc6R3CqZKpkv/oEiyZjkDsmpkt0kH5C8kk+RIAiCIOwP+JdIXnc2gH8qWSzqj/2SQyXvk7yMT5kgCIIg7Aj6DSRvkHxfMlmoBRKKjyUfl7ycT58gCIIg9Af+H0i2lTwozADXBjOZDBAEQRCEnsD/b5IDzrvDN42Cs70D90t+i2+JIAiCIMIL/FdI9jx78rYZmZIjJG9GTwLfHEEQBEHULfB/X7KdZLpwD8ckX2JVgCAIgiBqHvivlOwumS3cR5JkC8nv8s0SBEEQROWB/8eSb1t2xx8W0s9WM67gmyYIgiCILwL/TyQHO3DHHwayz2oV/JBvniAIgohq4P+l5EjJuIgeUOXoK/kvXAkEQRBEVAL/byUnSJYJouisVPG/c2UQBEEQvgb+/5GcIVnBuH8B4mcVDX/BlUIQBEH4EvgbSc5njK8RUBUZhyoJVw5BEAThauCHIM4yxvQ6oeKswuD/cCURBEEQrgT+uyXXMoaHBlgZN+LKIgiCIGwM+nDm+5PkVsZrZViMqgpXG0EQBGFD4L/krCve54zP2rAaVRauPoIgCMJE4L9UsqnkYcZjY9h0turSgCuSIAiCUB34v3PW5OYk46812HW2CkMHQoIgCCL0wH/5WVObZMZba3HgbFXmm1yxBEEQRH0Dv8uWvFHFcUErYoIgCKKOgd8nS96oglbEBEEQRI0Dv/OWvCXxCrHnRFws3looxi3NE/1m5IguE7JEq1GZ4pVhGeKFwelVsuXITNFpfJYYPCdXzFxbIHYfj4tS9x0LaEVMEARBVBn4nbbk/VwG/F5Ts8UTb6eJPzRPEv/v9fB4fevkIDFAQlFS6rSNAa2ICYIgiC8Dv9OWvNuPlIjXEjNCDfgX4+0dYmLUJ3kir9DpRIBWxARBEBEO/E5b8m7YVxyU7HUF/vP5xzeSxeC5uSIrv9zlRIBWxARBEBEK/E5b8q7aXSSeeTfNWOA/n9e2Shb9Z+aI1GynGwVoRUwQBOFx4HfWkrdCpipLthUF9/u2BP7zeU2LZNF7WrY4k+F0IkArYoIgCI8Cv7OWvOXlQszbWCge6ZVqbeA/n2hA7DoxSxxPKXU5EaAVMUEQhMOB31lLXozdffRZgXiwhzuB/3w2bJYk2o/NEgfPxIXjoBUxQRCEA0HfaUtezO9PXpkv7umS4mzgP59XyUQA+gN7jjufCNCKmCAIwsLA77Qlb2FJhRi7NE/c0THmTeCvjBhX3Hq4xPVEgFbEBEEQFgR+py15MUs/YmGeuKWd34H/fGJ8cd3eYtcTAVoREwRBGAj8TlvyZueXBzP0N7yZHKnAfz6b9E8TK3cVuZ4I0IqYIAhCQ+B32pI3Pac8mJm/rnW0A//5fLxvWiAzXOG0uCCtiAmCIFQEfqcteZMzy4IZeczKM+BXzT/3TA3GHsudFhekFTFBEEQYgd9pS94TqaXBTHzY5jy+8/5uKcEYpOMuhLQiJgiCqEPgd9qS93BSaTADj1l4BvS68+5OKcFYJMYjHQatiAmCIGoQ+GHJO0Q4bMmLmferGPhD5W3tY8GYJMYlHQatiAmCICoJ/LDkHSVoyUtehDe1iQVjk7mFTjcJ0IqYIAhCfGHJO1HQkpesgxVxZh6tiAmCIFwL/LDk/UjQkpcMwYo4hVbEBEEQ1gd+WPIucHGXdsGSN6o8Z0V8Op1WxARBELYFfljyLndxV3bRkjeqPGdFfCxGK2KCIAjTgR+WvOtc3IV9sOSNKs9ZER84TStigiAInUH/nCXvNhd3XB8teaPKc1bEu2lFTBAEoTTwf0N8YYqy18UdNiqWvFElxjS3HKIVMUEQRJiB/1uClrykK1bE79GKmCAIor6B/7uClrwkrYhNglbEBEFoDfyw5G0paMlL0orYFtCKmCAIpYEflrztBS15SVoR2wpaERMEEWrghyVvD0FLXpJWxK6AVsQEQdQr8MOSt5+gJS9JK2JXQStigiBqFfidtuTdQ0teklbEF/S8CloREwRxkcDvtCXvtsO05CVpRVwNaEVMEMTXAr/TlrzraclL0oq4tqAVMUFEPPA7bcn76S5a8pK0Iq4naEVMEBEL/E5b8mJmm5a8JK2IQwWtiAnC88BPS16SpBXxRXNsQStigvAq8DtvyftAdzrzkbQi1gxaEROEo0HfC0vexrTkJWlFbBq0IiYIRwK/F5a8t3egMx9JK2LLQCtigrA08HthyXtzWwZ+klbElmOzoBUxQVgR+L2w5MVsNQMESStip7Bb0IqYIIwEfqctedPOWvJilpoBgaQVsdOJwEFBK2KC0BL4nbbkTcqgJS9JempFfELQipgglAR+py15j6fQkpckI2JFjKokrIgv485NEPUL/E5b8h46Q0tekoy4FfH3uJMTRO0CPy15SZJWxD5ZEf+IOztBXDzw05KXJEmfrYj/lTs9QXw98NOSlyTJKFkR/4Q7PxH1wE9LXpIko2xF/EtGAiJqgZ+WvCRJ0or4i6rnh4JWxEQEAj8teUmSpBVxJWcLyWmCVsSEh4GflrwkSdKKuGaYK2hFTDge9GnJS5IkrYjrjiWCVsSEY4GflrwkSdKKODysEbQiJiwP/LTkJUmSVsTqQCtiwrrAT0tekiRpRawPtCImjAd+WvKSJEkrYnOgFTGhPfDTkpd0lvd2TRGJ83PFloMlgZBMVn65OJxUKhZsKhRtxmRyXdCK2EXQiphQHvhpyUs6S/R2zFxbUO1Gn5xZJt4cnclnRitiF0ErYiL0wE9LXtJpPvVOWq1lY6evLhANmSzSithN0IqYqHfghzNfoqAlL+kwnxuYLorqaCc7e10BnyGtiF1OBFCthfHQ7xjRiJoG/v8jHDbooSUveY6NO6eInIL6Xe72mprNZ0krYtetiIEtZycHvsEoR1QW+P9dcqyrgZ+WvOT5DGPcK7+oIjgN8nnSitgDK2JxVqelKUcIiXOB/5uSbSQLXFzNtOQlK+MTfdNCW2OjPsnjMyV9siIGtgvKDEc++P/PWVEJp0BLXrI6TlgRXs9qLLOMvSSkj1bEwDiMdjMaRivwX3K2S9Qptwxa8pI1ZdiOcI/25pojvbUiPiPoNRCZ4P8jyaUurU5a8pK1dYOLl4XbyoJRUj5b0nMr4t5sEvQ7+P8emjiurEZa8pJ17dwOG7j35bMla2RFPNJpK+KVkj9ktPQv+N/tipgPLXlJJgCk63zVXSvi/ZL/wajpT/Bv6sJ9Py15SSYApG98fpCTVsSpkv+X0dP94P+y9XJVtOQlmQCQnvNp96yIMUt7FaMog7+a1UVLXtKRBKDHZCoCkuHwL32csiLOQe8Yo6l7wf9RYamqHy15SdWNWGFvrijj8tmSYfKht5yxIobL4M8ZVd0J/jeiid62VURLXlIXU0NWaru1HftSSDW8r6sTVsQHMULO6Gp/8P+FZJZNK4eWvKRubj4YXv4LQyE+U1I177LfingJdQLsDv7/JLnLltVCS17SFMctzQttHe84WsJnSmojqk0Ygy4otjIR6MdIa28CMMmGFUJLXtI0/z4kPbT1PGd9AZ8paaSZFWPR9bW0VoDGjLb2Bf+nTK8KWvKStrBRy+TQ5IA5Akia5Dkr4oxcaxIBNAVeyahrT/D/2dlxDSNYu7eYlrykdQxLjvWxPjQCIs3znBVxLMuKbsEZjLz2JACfmFgBh5NKA7lLfpykjZyxpiAUdUo+S9ImnrMiPpNhPBG4h9HXfPB/XPdbLymtEIM+zuE4H2k1B8zKCSXJ5bMkba0IfLA4L3Tny1rgiOR3GYXNBf/Lz97HaD310xuddIEYPa33BMARTgCQdvPPPVPF1sPGZF/aMhKbSwC6ax0C3VYkrmtN9T7SDT43MD2UNc9nSdpOaKygUbBMf58gsuzvMxrrD/4/lizQ9ZbHLMnjPD/pFO/vllLvdT9lVT6fJekMn3onTZxMLdWdBLzFiKw/ARik6+0is+THRbrYLMW1T0ZRP+Czz7XaD2dChI5RWV/wv1IyX8ebHcINkHSY9Z2d7jIhi8+RdO9KoHk4UzC1wKuMzPoSgB463uiUT1n+JN3mgdP10wKgoiXpMseGKIldDfYxMusJ/pfq6PzfsK84yCL5EZEuEyJV9QHuVPkcSaeTgCXakoCrGaHVJwCPqX6L6Tnl4rb2tD8l3efsdfUrgzbunMLnSEb+O6ghhjJCe6D612JEJj8a0guOWlS/00+jVhx7Jd3n1S3CtciuAkmSDRil1Tb/KZ3xWLGTc8+kP+z3Ud3VAAtLKANM+sPbO8REWo5yoYDfM1KrSwBeUvnmICLxYA+q/JH+sOvEuqsBYrPkMyR94uvDM1QnAO0YqdUlAPNUvrl5Gwv5kZBe8Y0PMuv8PZxKK+MzJL3jos2FKsPIXEZqNcH/26qV/x7vy45n0i++MqzuJx6MEPIZkr7xzo6x4HpLEWKM1moSgJtVBv/93OxID/nC4Lr7AWw7TCMg0k+OUTsa+L8YscNPADqofGOJC6j4RzIB+Cq2HGICQPrJW9vFRElcWRXgMUbs8BOA+SoTgGfeZfmf9I8vD637FcCOo0wASH/58XplN8oDGLHDTwDSVb2t8nIhruW8M+khO4zLYg8ASVbCZwcoCynrGbHDDf6/Unn6P3iGGx3pJ9+dlcMEgCQrIezdY5llKkIKFIe+zcgdXgLQRGUCANcofhCkj1y8te4jT/lFFaJhMz5D0l9+9Jmya4BrGbnDSwCGq0wAOo2n5SnpH+/qlFLvRqdX6QZI+nxF9mGWqrDSipE7vARgh8oE4P5uNDwh/SKcLOFoGcb12HWt2R9D+kns/YownZE7nOB/Ofr0VL2ljFzKnZL+Bf8w1c5W7y4W17RgEkD6SUX+AKcZvcNJAG5TefpfvoPmP6RfnLoqP/TvZNXuosBRjc+X9I1LtxVREMjiBKCTygRgwOwcfgSkVzx0Ro1h5qO9aZRF+sf+M3NUhRcKAoWQACxUmQA0HZDOj4D0iqnZSkabxAvv8Vsh/ePT/dMoCGRp8G+Aa3pVb6ektIJ3m6R3xLpWgTajM/l8Se/4h+ZJoliNLDAFgeqZAPxa5el/xxFKnZJ+8bb2MWXfS88p2XzGpJfccrCEgkAWJgBNVSYA45bmcfGTTvH2DjHx1Dtp4k15Gh8wK0dMXpkvVu4sEvtPxUVOQbnKz0WcSC0Vn2wtDL6bfjNyROtRmeKJt9PEH99gFY10mwrdASkIVI8EYITKDa3VSJY0STt5T5eUIMAOnZcr5m8qFHtOxANlPluBvoOth0vErLUF4p2ZOUG/wE1tYnyXpBN8fbiym+Y3GMnrngDsUrlp4TTFxU+a5s1tY6KlTEbHypP1hv3FIju/XPiCpIyyoEIxeE6ueH5QOkWFSGu/wQo1+fVHjOR1C/5XqBQAQjmTC580wVvaxUTbMZli2uoCcTipVNXGYyXgvLn3ZDy4umg+IkPc8CYTAtIOHklWMj6bxGhetwTgdpUb0byNhVz0pDZlvib908SIhXli17G4KI9QwK9JQoBnMuqTPPHMu2k0HyKNEddXivATRnTLBIDY0UyqJFTzXkvMELPXFYjMvHJG+hoiK788SM7R5MjmQlInu0xQZgz0F0Z0ywSAqGpGqpgnRjPRgk2FVjfsuQI4GUKqu82YTHFtKyYDpFr+qUeqqqU8iBHdIgGgvEL6nJPhEaNwk1bmB8ZShBoUllQEI4ioqvDbJVVR0Te8kVHdIgGgtXuLudjJehHNa32nZwdNfIRepGSXidGL84ITG9ciGSYxsaIAccnvMLJbIgCUOD+Xi52s82kfzUI4kRLmsflgiXjjg8zg+oXrk6wvB32szBjoOkZ2SwSA/j6EpiZkLbr4myWJFiMyxbbDJYy4liKWVSaGzcultgdZL8IcThEoCGSDABDGjthdTNaEaDzDtMjxFJb5XWocnLGmQDzQPYVrmKw1YQ6nyEyLgkA2CADtOxmP3KK+Sp5g7+gYE/d2TaESWw0DPzzC03PY1OcqoLWwdFtRcGXDNU3WhjuOKqn0URDIBgGgqavyI5PJdp2YJdbvK77gvhqz1ou3FgbjVbw7ZeD3HSt3MRGojg/2SBWdx2cFd+ADZ+cEM/EP94xmkyXMrhSBgkCmBYA6jMvyfgG/ODhdnE4vq9HzwP9du7FZkd78oNTXY3J2YGhDMBGICq9vnRwYN0EWvSqclP9/cH7EgSIqzwW+HIpAQSDTAkBwWfNdzaouUrPTVxcEVwVR2wShR89RvugAvgsQamrcJdo9Am1GZ9Zq5v3QmVLx0FvRqAjc2i6mavlREKgGAkDK0i+c8HxeuLBgLa9H9XrFzqLINEhCCXLLQXb1R7lZEO6LN7ZJjly1C02SdQGuDqOSBChq/KUgUDUJwG9UfvRLthV5u2AbtUyucdn/YoAjVuPO/p6OsOFDta+c1/zE2aD21pTsSKgLouS/8UBxvZ4XqmXYa3x/VnPWKzEGoiBQNQnAcyo/dtx3+bpgMa4WFk6llXmXBOB6A01OlOslKsOe43Hx1Dv+9gfc1j4W2lXX4Dn+C6mhJ0gRKAh0kQRgpMqP/On+/n7gO46EW85GEnBnRz9EVe7vliI27CtmlCOq7Q/46LMCcVObGIP/RZCWUx5cJficAGACQhEoCHSRBGCPqqdeHK/wduQNHboqStr7T8Wd7glAWRdjfZTtJWob4FqNyvTmyktFk+vfBvmtpoqKYU6BkmohBYGqCP7fQxKu6qPeerjE28WKxhxV+OzzYiezfcw17zzKJj+i7oCQkMvSwrirVyVfPWBWjvfXAKt3K6kaUhCoigTgTpUf85glef4a1PRNU7oRYjrAJQVB3N/x1E+EAZwCIZjl4r4wf1OhsucyYbn/gmqD5+aqenw/Y8S/MAHoovJDbvZ+hrcLFbaoqgELZduvUHDXCbEXgggb8zYWBhbQruwJIxflKX0ek1f6nwA8P0iZMdATjPgXJgCLVC7YW9r56xKGHoAyDc3tH6+3VywIH2saJXwJhTiTUSaeHZge5ZPrl4DzYhSkwUvViIMOZsS/UAAoS9ViPRYr9d/A4oie+27bMn8kJNjwONdP6ABUNofK4GdrIjxhRb6W59DakybJ6rj7eFzF49vEqK9RAGj2ugLvFyqacnRh1Cd29FPc3DamqlGHIKq9ErOtqjh2aZ6W345kG99eFBIARQkVxjK+y8ivSQCo+6Rs7xcqPkidjW/vGRYDgZRvGMqHLgNaDcu2FwXl2I4fZmn5N6GcBy19WKZm5kW77BLLLBPPvGuHtsgQDWX/c/h0V1Ekgj/45mhlyvR/ZOTXJAD054jYWurcBIDe08wkVnDrKiiOTpc/7iH3n44H8qT9PsoJ+h3Ob0iD2JEOHD3vOg06ERDYwuQFrLYxbhuld1NSWmHcTRPJuE7YkvTo4B0dlRkDtWHk1yAAhDGeqLjcXd0iSew6Fte6GeisBOA9Ismp8Dy+4JSNkz2C/V/7pQXv1fQo6Jen3qzqDbWgG/GXPmlBgohRNDTP+Q70ofja8PdVLNxcGDnnREWVxlmM/BoEgHBHHKXFCvlelIZ92/wQBOduKPQyeGCCA4ItSG4QyOuSsMIJUgfyiyrq9P4e6J4i+kzPDjQl8gr9zOBmrS3QKpoFbROdOJlaGjn3RIV6CsmM/hoEgIbMzY3cgoWRz2bNVreJ89U9Z5SZ1+31q9kPdrTLdxQFBkVhbKotRmRq+9vDSOZeGZYR6O77NroJ5UzVollIECdq6vY/h5TsskBdM2p7KYhKliJQEEgoFgB63nPNapt6AqatDv8EhIoGPAl8ALqnESA6jMsK3WNBVxMgEOYpEH4NmK2HR70i7XXt2HMiHohSqZL3XbSlUHvwf6RXamT30cf6KBNaoyCQUCgAhNKqSxK2Kvjy0AytVwI41TZqFc4zR9lY93WGCqBx7t1ZOUp15RWeUi5A4y4pyoLbGx9kilW7i4J5e5eBcjnWb5jPB2OHuvQ+zgE9RXd0jEV6D0WSqujaanDUg79SASB4fEd54X5V0QozwmWaDljYpOob7DC5gZOHq0Dn/qLNhdpc0wZr7ATHCKbq33OPTDI+WJwnMnLdrQrgegOnx7DsaU+klmr72+NlFYGcMFRGuYcmBboPCrAp6gmAUgGgSRHQq66tayCasHQA3eJN+qfVueSGTngXgTI2mrPu7pSi9d3qbAjTOQaGAITrjYNn3LwGwjp+un/9nlen8VlaNT6g8RDlkn9lTFygJMGOtiCQUCwA1HZMJhdvJXxuYLqqjPaCKxiMCdamLwBJAzrNXUO6PO31n5lj7MoJ/Re6gAY+E5LPryZmiE0H3LN4xnrGlEatr0RaJQeNkrqAcU30p0RlbLo2/PsQZVM2f4xyAjBK5YK+S/MpzDWiPI37adU4nFQazLS/NCQjOM2htDtgds4F8+04+bvWCAY1ONy/my6VqrR+PR9tRptNrFGB2HLIrUSgOF4RBJGqplyaDkj/MlFG4MczPhbTU/LPLSwPvkeW+6vm9TKxV+Q30ibKCcBeVYs6ObOMC7eGjVcob0HRTDc+PxEPriVcLPtny78V/gthNTzWlzptkG2R1n5hcLrYedSdRABl/POvxV6Uv+GcUBK+QSTApZpaX/Dv4Jo0Krr+9eXek0quoWZFNfh/XygUAMKoDBdt7TruN+zTP2tfJDfF4TIBcSX4Y5PGfbtt3vA6T8S46rDpt2NywBVfCFwHIAnAqX+6xmub87Fhf/GXyTdZM05ZpUR7ITmqCcBdKhd43+nZXLR1IHTN03PorVsZIM8LzX0b35tOrYQRC/OsrGRhEsKF/hH8jabkkTFVgXt+7nV12xsV4WdRTAC6qVzoT/ZL46KtI29qExMfry9gxD8LaBFAT8Hmd6ZTLwEWqTabtyzZVsRFex7gn4GKQxSlfMMiJnsU4YkoJgCLVd616dTk9rnz1QchnvrckaJh0ZZ7/otRpzXv7HUF1j+P14dniKSMMkZ+iSPJpUGTIfe0+hNNvwowOGrB/xL0Uala8BgV4mINhxhrm/JpfuQ2Tdjv6hC8CYsQbtEFnLC5du0H1gSua3A9wr0sHH6yVcm0zZaoJQC/VbnwRy3K42INma8lZkSiNwDaBdg0a2LBa9P9t05AQ8K1Spaik5u1OOBYAusK0VumYtuRvCxKCcDzKhc/ghUXa/iEwcmaPcXebproJG/SP83J96ITUIpz7RlhamPBpsJIBP8Jy/N56lfEJ95OU/XaboxSAvCBymYXNLFxsapTZBs2L9d5s5bzgbFR20b7ajPCqROHzpQ6u367TswKRk99BLwHXh7Gw49SY6DmSapkmdtSACgEQHWOC1U94T8PdTMf7kl7Tc3mqaQWQHOdy88LpXE0xvkEGHBF3bVPF6GhoAAfUwAoBMxcW8BFqolPO6rbfw71MSyyiVDE0wlYo/og7bp0ux/jgvM2FlLGVyPhkqgAKRQACgFdJlDkQic7fJjl7ImpvpbFtrDVyEytzw7XbL5cZyXOz3U6+MMEiuY9egkzLEX4DwoA1RN/6sHOV92bqCsyrOeAZjCfTkydx+tPwiBl68vzaykTqEIH+wJOpJY6oVHhG9ErpKgH6kkKANUDEEPhAtVPl7qrceLjaFL94ZvT5l/7pQUyuS6hD+XOjfHgGSXS20MpAFQPrNxZxMVpgOOW5lm/WSJjt8XFLmwOnae/jO2jkQx8Ho6nuNMc2Lgz7c5NccYaJVLpW3xPAJQKAL03J5eL0wAhnGMzMK3QfIS/41FjDSRgT7/jp9fGre1iYs/xuPXBv6C4gnuPf71PfgsCCcUCQM9S79rYWFWapSqB2CihBMfTSLh4aYi/CRUMc7YdLrE6AcAEC/ces9UiRbjR5wRAmQAQ5rnZEGP2g0BTkk04573u+7NfuFl/D0brUZnee2BsPmhvEjBgVg73HcNUdOhp63MCoEwAaNexOBelBZK0n5+wp3w6PSIjUqt2659nh6JeFHQuSi0bcMHfw1FnO7hUje30x74Gf6UCQOOX53NRWkDokNuE1buLg8TE52e+5ZD+k2q/j/w9gSJpfHtGjigptWs0EL0ssDnmPmMH+8/MUfGaU3xNAO5W+XG88UEmF6UFinQVFo5Tw8XwFY810uH8phs+jlOCEIf67HM7Da9OpZXR5MeyCpEi/IePCUAPlR+HL6puLtP27mlfXdJMCDF9uMy/iluz9zOs1wLAxA33Gjv4h+ZJqvxQnvQxAVii6qPABsgFaZbtx7ohCbz/VNy7GfacAv1B66PP/PHcQPMwJHVdAK4lqHZq0fWbmkbRob4FfwgAKVMrmb+pkIvRICELm5rtjhww7GB7TvFHFKjMwKEV9sk+PLu/9EkLHERdwsYDxdx3LOGYJUo0OLb4lgD8l8oPovc0SmKa5HjLGv9qimXbi8TNbd2+OrpWnl5NNVe63uj3zkz7Gv1qCgjRcO8xTzRlKoBfgkDyx7yo8mNAFs/FaIaP9Eo1cgINreU2u0y88J67QkHofTGBrYdLnH5ma/cWC5eBGXSfDJlcJQ4Qihqfb/QpARij6kOA0ltD2mEa46YDJcJ1wCcApTw09bj2/HEfbAKYPHC10Q+mYT4AvvTcg8zzSLKSK6T2PiUA+1R9BOv38T7M5GbqE3Yfj4sHurtlsAIXOxM4k+FW461LjX41BTrQ7+5EQyDTnLVWybqa60vw/4HKj2D4AhoAmSCqLofOlArfgIpS5/Hu3K++ODjdyHPC5AEb/cxj3kY2QJsmlBkVINWXBKCxyg/g5WFUxvJo0VsDdLnDFMb299BqVKaR54O+Dzb6mQfun594mz1Qnl7D/ZICQNXc3bIRxkA5tWWySM4sE74D+hK2O0yaTMRsNt/yodGvpli3l9egpqlIQOopCgB52IjkOt+dlSOignL5XScuyBUNLW0QhCa/KdiqvulTo19N4fIkiw9cuVOJMVAiBYAuAvigc/HpnztPz4nW5gpsP1Ii7u1qX8MVNPlN4UHLFOl8bPSrKWAIxf3JHAd9rCQR30YBoIuAYhgGTpwzckRUkVtYLtqOsct0Cpr8pvBkP3vunn1u9KtxFWAwqwCm2HSAkmZc3LP+EwWAqsD93TgCo5PXtEgWsQjc/VeHOesLrOk9gSZ/lAMOGv1wJRUvq4j8umQVwOzeqKjZ9GYKAFUClKG58PSyx+RsQXyBE6ml4ql3zJ+AMa1gCphAMPnb7+wYC3RACFYBbOCOo0pE0dq7nAAoEwBaur2Ii06z9SX8yIl/oFQ+jvfm5BpVolyzx1wANKmX0GJEpsjKL+ciPA+ffc6JAFMct1SJMdBcV4O/UgGgAbNyuOg08s3RmdxdqwDkkO8ypMi27bA5Kea+0/WbcKEJFc2/RNV4tDftgk2w5Ugle2SqqwmAUgGgJv0pfqGTWw0EmlW7i5zZdLPlabTVSP0l8YNn4sZ+85C5elU4H++bJo7G3Gn0g0Y8tCR04+P1nI4ywVvbKTPm+qWLCYAyAaCSeEXQdMFFp2/j1Y2Vu4qc1BzA6fRajQI5SRnmrmXGLtFjRuNiox/ug+EU12qk/soZntMdHWPcuwzweIqSBPUpFxMAZQJAmMnmYtNHnCh0b2BfNeXpMC4ruG93BTilImnS8W4wmmgK01erP2m62OiHvozrWv8jCdywX//fP3oxnQJNcI6avTLRteD/DaFQAGjsUi5uXbylXSyouGg9WVbyfl8emiHyi9w5AWIkCDr0VyluECw3+Ejmb1JrRONiox8CwPmqkbiTL9f8M6CEyCqpN5NS21xLAH6ncnG3HJnJxaaJA2frLcHjLv2GNyvfuJ6Qp2rXVAjRla1KMvemNjGjv+3cNQ0b/f5xJVJVwqe7igbYJloVBT7cU4kxkFuCQPKP/bvKhY1mCy42PdStroaE42J/D8SfFN2zKQOMQl5LDN+18tkB6UZ/1w4FV3GuNfqdA6o9F/td93RJ0X6NhekU7mH6halgla0AN7uUAIxTtaix+XOh6SGEbnQiTZ7ua9JAd1v7mNh1LO5ckJi0Mj9wUgzr/Qydl2v09xTHK0L7Pa4q+iGotx9bMz2EySv1yzb/qQdHAnVz9W4lPR/tXUoADqha0HM3FHKRaaJuY5Xe02o+V44mK5MiOHUFxvZQJqzvu4H4kA0n5TDUAF1V9CsorhAvD6t5ZQdXQcWa+2kmrMjnXqaZg+cqScznuhL8f6RyQb81JZuLTIezmjzZ6ewwj2WV1bppCc1WJu5Wwzg51ybZqYxdJmRZ8Vv2n4rXq9nMVUU//M1/rYMZ0pRVeqsA6Km5ugX3M518fpCSq7lUVxKAe1Qu6Ed6saSlg23G6J1f7j8zp86l45GL8oSLgIf4LXXoZ2ncOcUqv3skYbWddkAFx6SRUX0AcZ+6WiGb6AVo9n4G9zTNapWK3vGvXEgAeqpayDiRXtWMC0wHF2/VZzKDU0p93fV6Tc02OhJX57Q+u0y8WAsDF5TLbbS9xfhboxoKID3xdpo4FnPTuvfA6Xi9RXbmbdRr4LRoM69NdXP3cSU9Sk1cSACWqVrINLrQl8EWluiLpiMWhqPrgPto3XesYaCi4gvtg+pKtSiXp1k8BomehOYjMqpM0qGMB8MUV617Ybd7Y5v6Nz1CF0An8C1/VZiIVE/0XijAcBcEgJTVY9H1zMXll/EPgkGYc/LPDkxXNYajHHBbHCbXOO4QG3dJCcrFTQekB46D+066M/VwJqNMzFpbEIx0ojLz/sLcIHkvibsZ+IFl24tCFdbBiJ5O1HRSgbR6D90RaQGgF+l1rYULN+srUapQk0OXfSyT1sVEOIAo0fnqfvVl61F6e2wwmsa9TR9xTaQAONlcHkkBIEhpXs8ylpbuf52Su08rcnW8u1OKOHSmlNGLqBdQvVCxPpFQJGtMUlFpq2+fDVk7KnKCvDWSAkB7T8a5qDQQc8268PkJte8U97W4tyWIWh84ZA7cU/HI8TDNQk5tRlMaWCcXbFJSSe0QSQEgzM9yUTnbvFIp6jsLXxPi3nbp9iJGNKLGgJHTGx+oD5YY56zQ2BaB6QPucfqI/U3FrWkkBYDasYnFK+1/NITBzEbHb4Jq3pRP8xnZiGqB6y80Yer63jZoVEDEuG3YvQxk1Xysj5Jpj/RICgChK5qLSv2JRBcWbdF/GkE3PUFUBYxY/qVPmtY12eFDvYqOfxvERmpdxMEjr1BJiedXNiYAygSAIBPLBaWe3Sdla9uIXhlmRp0MErqlHBAgzsOJ1FJxX1f9hwzdmhvQYeBep4/r9iqp8DSxMQFQJgAEVTouJn/U/yBja7IU+WpiRmDkQhAAmlHhMBkF1U0oGXKv08fEBUqqjsNtC/5KBYD6fZTDxaSBkKXVAYjEmP6tMHLJyC1n9Is44EJoerxYp/AWmg6hyMj9Tg//PkSJMdAO2xIApQJA8KXnYlLLe7vqu/9/LdEOc5IHuqcE6ntENAGN/DDV/Vy5BgjDwpmsGZFclod/zrBLEEgoFAAqkh/GH9i5qpwdNTUjQabXJntSlH5RAiaihUkr860yFlu6Td+o6rTVBdzzNFKRjPetNiUAygSAthws4SLSQMid6jp12Zilr91bzKgYEWAaxLY12HWivmkAjPpyz9NHaNgoQAebEoCDqhbr6MXsWtVBXbK5ncbbqeeAqsTcDYWMjh4DpVgEWhvXHwyxdIoCmWx6jBqhYaMA820J/leqXKivD8/gItJwB1muYfPBBndrO3s3HpSExyzJY6T0ELCJtn0v2avR8bHZ+9xXHddXSbclAbhP5UJlx6p6wpBHB/accGME6e0ZOVoSIkIP0HcCW2Xb192oRfqST/xb3Pv0UZE76a9sSAB6q1qkR2O8q9JBmJ7owFiHREgwmgVNeMJtQEQM9tAurLkXBqdrey7oeeHep4+fqNF6aGJDArBC1SKdvY7dqj41ANoy/ldTQjZVkZQnoQFHkkuD8qszVtytkgPbXh3Iyi/n3qeRfacrOWQNNx38IQCkzGWl26RsLh4N3HFUvWUuGrBc9CN/tHeqSMmmVoBrwJp28fpwxxF99tX3d6O/ii4+2U/JNesu0wnA71Uu0IfeSuXi0UAdsriu3P9X1cSD0yThBlbvLhbXtU52cq19sFhfH0Cb0RQE0mYM1DxJhdgTBIGuMJkAvKxqcWazRKWFd3aMadlsMAvr8nOCdfF2jaczom6Ys77AactbTCrowvsLc7kHauSG/Uq0Rm43mQCMV7U4V+0u4qLRdM+tA3Dh82FccvmOIkZZS4ERTpvU/erCW9rFtD0vmqzp5Ug1Ux6dvBQAGjyH2akOdtNkAfxIr1RvSnnTVxcw2lqGd2b6Yximy5/i4Bk6A+p2IVWAhV4KAOFkykWjnqM13Dmix6BhM7+emyKbT6KWKJWxEkprPq2tRVv0KFJizLUhfVa08YY3lQiuIato4JUAED5qlFu5aDSYkGxXX9LedczPkwY05QlzQAB7eZh/inYDZudoe4ZwxOQ+qI+ouijAr70SANpznKUpXcSz1tGY5eOzw33zOpoIGUOPyX6OCb+WqK8RkJLAXmiuNPVKAGjiinwuFk3UMeM+YFaOt89P0XxvKBixMC9Ql6sr0ZEOwRgbAQvnq5r5uaYad0nR9hx7T6PWik4qsl0f4ZUAEOdT9bFUQ7+RawqAtSXsVW3DwpBsl18akmGlL0J3z0XCdClQYnKC+6A+QnxJxS2rVwJAmE3nYtFjQaoDviuO2TYVAGvnMIVwBlvY63BPF7/XFPpmdGDBJo4C6mZaTuhVNb2CQEKhANCZjDIuEk18rE+q8g0Gp8erW/j9HHU2bVWH3MLy0Bu7UGq3Sf8AstJ/8Lx7XdckwNbDJdwLdTdeb1PyLd3uhQAQFj4XidNzqV8DbDB9f479Z9qRAFRUqGvqgo/DsVipNQkAx3PDwel0Hrh0891ZSvaLTl4IAPWZzqYUXcT8tGpsi8AJAzbHtjT9qfydsNXV4RtRE7ho9FMbYsJBBzBKyb1QL5/ur6RxeKEXAkBP9E3jItHEt6ao32SiUNHZcsi8R8BnnxdrEVt6c3SmFQlA8xF+N5a+MkzfKKCrxkmuEtdXxfHQE2k9gkBCoQBQoBhHZSp9d9ez1JeufR/pxMhWueFJOZRxdZ6Ix1lQ8Zi9rsDrdQUbal2A2yX3Qy8ODb/WkQD0UbUQ4ZbExaGPKBmrxpC5fns6jF+ebzQQ4iTxuOaqGZL0TQfMVj0wvnpXJ38Dl64JHQDNwNwP9RLjlwrQVEcC8KmqhQi3JC4OfZy0Un3w8lWtDXzqnTRRZvj033m8GR3829rHggZPk1i9u9hbMSBc51RoareA6BP3Q71UZPs8QnXw/yYq9aoW4quJlKXUyY/Xq59fbzXST1EnzKGnZpsNgFNXmb1eeVomQPEys02BE1bke5sEZOTqyS7f+IDCa7qJKzsFCd4u1QnA/1O1CPEw4JbExaGP8zYW8nRRx+xd1+ZcFXYcLRHXtDD/vejqVr8YYGiFioRv60yXLXDXiVncDw3waPhjtWoFgeR//BVVixDqZVwU/iUAKJP7UI7FaRc9EwdOx40HPOjz26SWOXdDofFnAulcVETgzeBLRUDXWus2iaPXJjhrrZIK7O0qE4CJqhbhR58VcFF4mABgdtzFZ3Njm2TRZkxm8IxMn/bPBwycbHpWw+blWvd8MCXQelRmIGDk6vcJlT4dgJAV90P97DJBiQ5LZ5UJwGHfmpmYAKjFfV3d6dR+pFeqGDg7JxjRKbPTBO9L3GvRc/10V5G1zwnTApsPlgRyza4lo2s1WU0zATDDP/VQMuq5SFXw//9ULsKw9cvJ6rlSw8Z9t8WjWte2Sg7u86etLhBJGWXCJXT40J6EOT2n3JnnhveM9w0hIdsFcFZqSqx8H9W1mZl5oX87KCs0UJEAPKBqAaLEysXgjSnF13BTG7uas1CRgNz0mj3FoiReIVzFjDV2XJnp9K4PG3j/OGX3+yjHygOIrgRAtYQ0eZF3vFPJO/6NUwJAK+RD4GLw8wrAdAIA2U1MIny4LF8cTioVvsCWptk2lkgDh4HjKaVi8sp88fLQDNGoZTITAFI5B32sRI31OacEgPAQuBj0c+baAi8TAKioocFmybaioDvcR2BsFo2KptfQOEuMkMJGUUlF0NvQa2p2oPnABIBUwaYD0lW80pFOCQDhIXAx6OdkDUqAOjTqMfaFccP3F+aKPcfj2hTUTAP9C8Y1zQ+WROJZo+KCZAfVpD809ysBgD0t90MzRKUJjowhY48zAkD48TaU26JIHTa2qqYAIBqF8jNm0G0b09MFeMYb1UeQgdAWe2CdQFVp2faiQEDnDoV6DKt260kAOAVglhD1CrtAKPk9JwSAdh4t4SLw2Azo/m7hJQAY4wrG9A7aP6anAxhXNLl+dDrW2Yz9p+Ji1KK8oJIZppupLptpJgBeXqPd6YQAEJqzuAjMELPRqvFEPZzqGp0d04PC2xnHxvR0AE6AV7cwt366T8rmSzgPOQXlYuHmQtFpfJa4pV39qgPbj+hJAN6aQiVAk2w5UkkjbRcnBIBajaIRhSlCfEk1mvSvXQKAhqve07IDp7fieAUjSsjPN0xCvZOoGuVy+e46FhfDF+TWSaL44Bk9UsAdP6QIm0nCx0IBFjkhAISObS4CM2z2fobyzaW6RjU0VD0/KD0og/k0pqcLqOKYWj8ofRM1B3pV0LOC3pWaTMfEsvRUvbAPcD80S4yghoxwBIGEQgGgk6k0ADLJZ95NU765VKZYh4z33JhebiEv8+sDUxoaUFEs56ure3Wg/IsejsFzcsVjfSqXKC4s0VMBe3Ygp7BMc44aa/bfWC0ANH9TIV++f1rUX8PbM3KC0idKoCiF7o7QmJ6uU6WJtfOsmvnlyCKWWRbocrQamSmub50cWD3rAjwwuB+apSJb7eesFgCCyAZfvjmiDKkaR5JLndKKdxEPvaV/A8fsOKEG8bIKse2wPn2FuzrRh8U0MeGkACOtFgDCGBFfvlkWlfA47jpwr3xrO329NH/pkyb2nuT9vy+w3RQpCkSVFBMkIWNPfROAq1QtOohpNGzGF2+ax2JsvPMBmJiAsmPjzilKe0Zstv4lao/8ogrug5YQk08ho36CQPJ//JqqhbdubzFfugVcp8lznNCD0jIR3CU/2CO86hrkbzce4DrxEUdjbMS2hbBlVoA765MATFa18NAQxpdunrPWcpbbR6DLfNGWwjo3eKEk2XxERtC0SfiL9ft4ELOFGIdWgC71SQCOqlp4Lw3h7KkNHDYvl7ug54CpzNPv1EwwCNdy7cdmif2nGfijgI/XF3AftIQYrS0NX/phUV2D/78oO51UCPHHN9h4YpIQ4Pn7kHSxZg9Lu1EBrntQzq9sPUBSGOY2CgRJCIsx6hNaAdtEBRW3ugkCyf/Rn1QtOiiI8WWbISovCzYVqug4JRzBjiMl4rXEjKDMj1NH3+nZwRw6Ec0rgJeHZRj1lCD/wYkrlFi0/6YuCcDbqhbd9NUsO5kg5n0VeE8TjgJa89RoIABMZaFnpDrpblIt3xytxBjo+bokAKtVLbYO42g+YYJLt3OEiyCIqgGbbRhycb80wzs6KhFn+6AuAkCFqhbZvV25wHQTfuUEQRDVAR4d3DPN8XR66Ndxe2ubADRUtbjScsr5kjVnlPigCYIgagr0hXD/NEP0aIUM3Pt+3woBoKXMLpUTIjBvTckOxr9K4rzzJwii9vjoswKtEtPkF+w9TYkx0F1WCADBRIQvObxRPjj6wV/8g8V5gZRkGpu6CIIICTAmwqQA9u0n+qZRvl0DYQ+tAN2sEAB6un8aX3INiewbhkmvJmaIbpOyReL8XDF7XYHYdKAkuCeiHztBEDqRW1guNh8sCcbVukzIEo/LpKBRS2q6hEkkWZjKCBmLjQsAwbCE86Zf3Mv/bVB68AEhqE9ZlS/mbSwUu47FRVZ+eWDQQRAE4QpSsssCC2PsY5B5h789tCbgHMlrBCs8WnCvcIlRASAskKi9yEatkkXLkZlBY8fnJ+KikPa73gAVGLgpYrxyxMI80X9mjhg8N1cs3kqhpVCer/xUcK3Va2q2aNI/TdzXNSXwTcesNJ43nvuR5FJWwhxAhXyXqFqulYEN7w2Jwow1BcF7RLLwwnvp4u5OnA47x8QFSiTaf2tUAGjskujITmKWFgu8oJgB35fNC1a4oxfniY4fZgUnm2taJF808es5JVtk5zM61QUb9hUH/S01+dbwHvA+4GEAaVs0v55MLQ0SCMIt4ICEgxKqCC8OTo9sxRgy7QrwvFEBILiL+f7iIK86YFYOu+8dRSyrLCi/TViRH2jjw0TnutZ1v+O8vUNM7DlBY53a4P2FucF3FEb17cl+acFV29ileYHvRVIGJY9dAq5Ex8iDY9SuEa6Xe46CytYHRgWAbvH8JTZsrmSGk1C0saCZCf0XKDE/OzBd3NRGzfpEAgHZXaJ6YPRM9XcKIzI0I3eflB00syHhS81mYmAzcKWGRugoJQH7Toa+Z+ytLgG4TtULhMuY7y8MmxdhF9BNu+NoiZi5tkD0+ygnKCve1l5/IvpA9xRWharBGXk6N9lRjgQQiSASQiSGSBAzcnmFYxPmrC+46NWbT8QaVICfXSwB6KLyxfn8stqOyeTXaRBFZ+8O0Vw0YHZO0IHc2DJN8wnL8/miLgI0g9n4bSNhhI0y1PGQ5KOZmU2e5oBeHFRbfU8A2o3NUvH4Ohi5/7f14w6DsFSlAI8elJYJcehMqVi0uVAMm5crWo3MFPd3S3FCoAQKjUTlgODMjW3cOtnBXRNWupj+gD4HvNzZ9KsH6NHxPQFo3DlFxaPbW1Xwv1SyRNULw/iOry8Kd1NEuEADDK6Nlu/4YsSuzZjMYA39wfHMH93pxIXYfyru1QRQs/czxKCPc4KK1N6T8UADhQgXuM7zPQmIZSrpTflZZQnA71S9KJTLrvJYQvKzz4v5NdYDuPtdtbso6NTGiB0kR9HB7eNaWbuXa6UyYHTPd3U3VKqgCYLKFSpYB07Hg8oHUcekUT6/qzyXJv5kq5Km8qaVJQBNVb2onUf9FgBSINvoPRAIMWKHjuwodfbSmTGaCUBV/Gu/NL78euD14X6Plg9XIwg0VqsAkM/+0je3jfErrAOSM8siaSyCSgdxIXB/HknFt/m5Vr0HSPruOFISTM64MAExd0MhnQFrj22VJQBTVb2kySv9bdiAQIWNQLPcdvkho1kmKKu/nRYkK+iMh7nQws2FgcKdSaCBKmobPvoaiAuBKY6oVYPAPcft0IfAZAP8SSrb3zBRM3JRXpAU2Ca7DClun9cHZK8VAPPqDc5PADaoekkoY/j6gjCTaovk6FH5MUz5ND9oQLq+Bup1KD+i+Qr3kNBUx3gNEoZZa/XoGUAzP0qbPacALg6cdqK0HtAsqBtoSjwnmwxZ66XbisQbH2TW+G/GpEbrUZmBroYNk09wJ/R5jWD8VBH+/fwE4LiqfwljMj6/pL0nzWXxUItCU9Gf6zhlgSaa80vx+Mh1NCfh3zAhymOK8MIgqgbGO6OUAMA4Sjdwmg+zsRFVg6mr8o0lA4u2FDIBqBsanp8AZDEBcONDRhkZQR/qcqp+E6oBOjB0Xm4kNntUijLzqBVRHZ4bmB6ZBOBwkt7rIExjqTLXQTLw0pCMoMKgSwsBV5hoJPZ5jeCaVBHuOD8BULY7QYLV55cECVHVymBwlZu2uiDQMNfxm9qPzdLyEUODPQqOX+jDIKrHJxG5Fnp2QLr2Z/uxJjVWeF90kOsdtr8q7c/htur7Omk1SpnC7MPnJwDKMHiO/6c8KB2GDTTcYILimXfTtAvgoCGrqERPJt9hXJb36wOd1UT1QPMqHBR9Xw84KevGCwaEc3A4giASXDbDBBoSTfpG6CIcSRXhT9oSANg5RuKOd2k4d7wooU1amS/u62pWy16XsyHscn1eF2i6ImqOYZ5fCyHB0W0MBRtkk2O3OMCgKhCGw92mAyXKnDtt4xB118v6EoAolGrO8e0ZOXU+OeNuH9myLYv7xcH6ypSvJvo7Eoj1T9QckD/12exl1CL9zaAfLLbnEIZ9BdcRtb02LSmtCCbKouIGCOLaVxEePD8BUFajXLOnOFLdvTBxwJhMdc0w56xqR32SJx7rY59XAiYETqXp8UnfcshPtcgb3kymQUwdAJMnH9cDrtbQz6Mbf+ph3/6C3p9XhmUEQR3d/JAEr6p6geqqbe6ejsvMX39+ApCs6l86nV4WSZUvfOyQqoSZDdzCYGyDxphxcjHXZvbWJFGO1YXnB/nXAQ4LWaL2WL/Pz0ODidE/V5JrXBM82S8taHyDAM7fh6QHWglRjB3niCZpRfjV+QnAXlX/EoRyolS28YmwPNWl/rXxgH+bvu5RL5/wYI9Unv5DAHzluZe5R2ikKMTl5ycAK1T+a1Cd40t1k0s1Gtj4JA/8wnvpVgVUdNhDfREBAcJRSO4e7Z0qukzIChqrbMNEzzzf31+o//QP7QkevtzkK+o0AGKVeQGMUbkQ+83I4Ut1lFD70gV0Cfti8bl4a6E1wRR3idWdqF8emhGYwdgCNIld19qP4HVnx5jSmfiqgLtz7mHRniqrBCsqSwA6q1yIcEHjS3WX8N7WhbZj3G8Aw6hXqSWxNHFBbo2TqjtkoDIpbX0+uk/ywx8ArnW6gas7NCRz/3KTB9TtuUMqSwAeU7kYMRp3bSuWolxlt0n6mtnQNNrI8bWis3nyYphUBydOeEHY0ruAZMT1b6fpADNXQZ9EzGzLJyIRV3kjX1kC8Gs2o5AX07LXafiR6LCDJGbYMctuGmg4q6umxL1dU5TLW9cUTfq72z+EzvaDZ8xUVJ7uz74rTg9Vip9WlgBcIr7wCVaGdXuL+XId5oDZOdo2r+J4hbMjQJhhtwH19eAYMCvHit8B2VxXv5n35pipBEF6mnuWu1R4DXcqoSrgql71wnzorVS+YIfHmHSeCqGZ4OJzQqJrGrhGqW/3N/73+O+YBhTgbmnnnvQrJi3wt5vAax4ra/pOxdLh718sAejJbJ68GEdqljFtPsKtjQyd9hUWCP+1CamRUpcrZHWARLZT10DNzBlAoWGXe5W7hIqsQtx7sQTgdh2dqQ/3ZBXAVd4qT2I6pW3hIgY5XVeez4Tl+caD5e7j4Y1S4r8DsyYbKhoNHRoP7WNQARIqetyr3B0XVWgUhc3puxdLAL6Lhn3VC3QtewGcJqSNdcIVMylMLtjQOPfcwHAllXXqQFwMkNV2YR2gd8WU/8OhM6VOJUqk1tP/uITqgCq9joUK9TG+cDeJznKdkqYoqUNVz/bngjVtGit3qumb+HRXkfHftnq3/QcHVEw27DPXAwIdfe5RbhI+CIpl12+uSQLwoo6FCie8+7tRpMJV6jY1wVid7R7ge46bLZVj81DVZIv/brnh4gYSwfu62r1nmDR/wtUP9yY32ahlsmqxtaOSl9QkAfhnSS0qIPjBFAdyk5Bo1akLAMAy1Obs3TRUX5Xgv28aNkvborepqMRcB+hLQ9j57yqnfKq8d6hFQk0h/48X6Fq0CzZxKsBVdp+k/7TT4UM7r45g92wSuHOG/LBqeWNTd9vnAHMbnJZsPMEdOG2uAsS+KnfZebzyq0OUa79XmwTgcZ2L991ZNApyUvGumV6PgHOBzjYtCVxNFMfNBkZdyon4d0yj03j7ksBpq80lgJyscpdwyS1Rv3e8nVAbyP/BtyVTtS3gCpavXOULg/V3iEOn3iaXuP4zzSrm4SpG1/PAv5Nq2DFw51G7VO5MayVMX13AvchB3tY+JpLVS4bjbuHKhNpC/o/66lzEGJ+yvcGHrJzoPNcNWwSl0PV9PMWscU6PyXod8/DvmcYTfe3QuX+kV6oRm9+v7psuqiRGnfCI2HJQi1BU34S6QP4PfyqpNdXHHZov/t9RIoxjTJTA0XFt+rf/fYjZGXlUQ2A+pPvqx7RbIHouTL/7m9vGxMlUs8/hrSnZ3IMc5NRVWgTDUMX/fkJdIf/HE3QvaJs7vcmLjAUaMD3B3efLQ81eHS3fYXY+vtn7Zn4/tOZNAt32sC021v8ik64N+816Puw6Fqfoj4PsOlHbldGLCfWB/A/8HxML2zXdbzJJXN0iSRxJ1n8ayi0sF3/qYaYB6q5OKUZn4zcdMHsXvvGA2QD4zkxz+4TpkUisu8f70u7XNT79Tpoug6gtoiZz/zVIAqZpX9zy+bwyjE2BrtGUZCzu4G81cA+qWxL5q4AoDjqITb5v3MObND7Ce7/KwAl44GzzNskfLsvnnuMYMUYLbxMNwEns9wlhQP6H/rfuXoBzzS1UCnSP0w2NQ6EcqrN/BE08JrvhF26246oMzZgmoXt6CB3/pt0e0XdAATW3CGvtrYe1uUN2SwgT8j843MRCh7HF9WwKdIp/fCNZnMkwExg/+7xYW0McHNdMASVEWyZmGndJ0THHXCVWKPI+qIyoSpaanYAMgNFb7jVuUeOV0VbJS8NOAK6UNLLjLdlWZKTMR9adLw421xk/Z32BlvWC+3dTgOWwTe977BJzVyG4C2/cWX0y9My7acbFngBXnDFJI2OzuJv6RYIKoNpmatEPmZvLhcSrgFptkiqTgD/3TDX223A1ZpspErrxdbpDno+Ri9T6AzTpnybyi8wHf5T+UWHj/uIOsXbiZdrWziMJqoCOQlRZjWT5Fe54gZNfEFc3JgVyVJ6UJq/MN/a7Blgqm91vhrnGuPSc8mAKxefgjz3w2QEs/bvEOzrGdPYJ9U1QDfmP/KekkdkfjHs92IN61y7xibe1Zr8XYPzy/NArAWg0hJW1CZxOLwuaiWwdAzUpitN2TKa3wR8YsySPe4pjTX87jmq7Jpwl2SBBB+Q/9JqpjwDqYyyBuUWcWE3io88KQm0MNCmD22FcltXv2mRj5JZD4WoioNHOluCPCRdVFQ5SDWet1XYFul3ysgSdkP/gaFMfw7LtbAp0iXhX6/aaFYxZtLkwtA10/ykzlq+fn4hbv+7x92k89VyAR3uHUyFsOTLTioY/AEkIx6HdYs8p2g4JaZI/TdAN+Y9+S3K9qY9Cl/UpGQ4h0hPLNDs/tWZPcb11AlASNoUX3nPj/hf31KYwLQRXvO6Tso2qO56PNgquNkh1bCrXv6ZRUdy33ZRgCvIf/7HkGRMfBYQ4mo9gU6BTEpj9zfYDAHtPxgM1LtdEb1bvLnbqXaNKZwIFxRV1viJE9QLTBDZhyqdU+3OJd3aMBQ2pmvBKgmnIP+JqU02BaMR66C02BbrE3tPM28hCpAhjfLX922G5qknD++vd33I/ebinW+sc3gymBHOwxmr79zZqlRxcE9kEXKXw3t8dNmqZLHYf13Y9ODLBFsg/pompj+RojE2BrnHuBvMbLSZKajtWakr/Hc1ELr7nKavMjEpCPbS2o1oaN+4aISO3PDCa4n7hDj9er63pby2u4BNsgvyDBpr6WFbuYlOgc+MxR0qMb7KYqx48N7dGaweWq6fS9B9pC0sqgrKiq30fpsYlnx9Us34JmFel5ZRbFfxxTcZ5f7fYZ7q2yuYpyX9NsA3yj/qG5DJTHw1c2bgQ3XLFSsoos2LDhdR0dVWkVxMzuK7rQCRYJvDJ1sJq7/sxnlpmV+wPAK947hHu8LmB2pr+0FjTMMFWyD/uh5JHTH04GN3hgnSHGNlC05YNOJFaGljbVvW3frpLf1Mbmolcv96CY50m+9Ovt0fLf7KqZk88U1NNitXBNo8H8uK8u1NKcF2jCU8l2A75R/6XpJHLPwSTP/dkU6BLfC3RDne1c6XXt2dcKLN7T5eU4LpANzBL7MM77jw+y8j7TJx/4ajw0++kBcmejVi+o0ibkyUZQtOfTG73nNDWO9I/wRXIP/YhUx8RtOdveJNNgS6xy4QsqzbiVbuLgsawc3/fB4v1j4Ydi5WKP3gSDNA/sf+0/iY76E6cC6h4lsMX5Fo13/9V7DxaUm+NClIvNY4EL8YVe4JLkH9wN5MbeEM2BTpFUx32VQGOe+3HZgUNixpLfF+ixQi/rrNeHmqmh6LVqMxgJNG2Lv+vAv4Jt7WPcR9wiBqNrw5L/iDBNcg/uoHkbFMf1ahP2BToGicZdNirCiZkf7ceLvHy/X72uX65EExuYJLCVqRkl4l7u3LczyVCkVNT8yhKj79NcBXyj79Cco+pj6v1KDYFuuYZAAvfqAP31D6+38f6pBrppbAVWfnl4pFe7FlyiY27aG36eyDBdcgf8QtJIxZhaArkB+ZeErDQMkU2nahufI1iKX4ABj+QxuY379ZEy76T2iqCnRN8gfwxt0saab9Bx+9NbXi/5lTTWPMk62RZdQDTEL67vkHdrqikIvLBvwmDv3NcsEnbnjQTV+gJPgH9OKY+ONw9cryGSYDtmLgiGjPg6M9h8Oc37hL7z9TW9LdL8vIEHyF/2HhTH96YJWwKdDEJmBORkjEkc29uG41KFYR4TExW2BD8m1Li1zm+ODhd1/goRmV+nuAr5I/7juQmUx9gm9FsCnSxJ2D6av+TAIxB0hXS74Y/3vm7R0xo4N1pAOTQbkvwHfJH/ptkzMRHiHEgyM9yYbvH0Yv9LRvDEwGqYlF6nxDmgWhXFIBqByYg+B27RQgzHdAnYNU8ISqQP/ZaSSPKHJgLjkqp1UfxDR/HyDqNj6b5C7w7fAdEfh7ozjl/F7loi7YepLEJUYP80X8z9VGu38emQFf55uhMURL3JwvAWFGUray3HS7xNvh/fiJOhT9HOUCfMulGyW8nRBHyhw8x9XF+uIyuWy7bb0Kq1we8NCQj0u8Sokc+ApNH11Pb30nim9RUaUyW/HFCVCF//KWSK019pO3G0nfbVaKseiTZ7TvkPcfjkfesQPVj44Fir4L/5JX5rDA6SuhwaDpcoPR1TULUIR/ClZLHTXyoECT5Sx925rpKuD6u3u128MjOLxfzNxWKtmMyIyNYhR4cTOTMXlcg0nP8GQfEqBimG/htuklUbA6d0XaoaJpAfJkE/LekkVmv0+lsCnRdK2Ds0jxvAghc66BZAfe8az2ZDGjUMjmYpcbv2nsyLio8bOREpz9MYvhNuluJWrKtSNdyeY9R/8Ik4DFTH++mAyUs2TlOGD/lFvolLgNpYFwToKSM6ypXXONu7xATryVmiGHzcsXavcWiOO639C/eEUxi+B26y/fm5OpaLsslv8mIX3kS0MvURzxhBZsCfbi/23sy7nWwwf3kloMlQVLQbVK2eObdNHFLOzMVLCj6PdkvTbSXycnIRXli1e4ikZpdJqKEjz4rCCoc/P7c5SvDtDX9HZX8ESN91QnAJZLzTH3MHT5kU6AP5eYpn+aLqAHVD4ydoYw5SSYHONF0GJcVdDQjSCM5wlVXdSOHqIShF+FWmVQ83DM1KN0jwL8zM0eMXZIXSDNvPVwSSSnfrwKyvm3GUFnUh2ZiTU1/2JR+xyhffRLwPcn9Jj5qlCqf6MumQB+IO/SonUZrA3gPfJWwziZqWPKXiRbFffzwpDicpK3p72FG95onAb9Cg7SJjxuyrKZKqmT43eaLtxYyYhGhNWmOWpQXyBjz+3K/6W/Zdm1Nfz0Y1WufBDTGN2fiQ8cdKz9yf/jGB5mRL1kT9QMkfWnj6w+HztPW9DdXsgEjet2SgDamPng0WfFD8Ye41567gdUAopan/gohxi/P92Ykk0wSrw/X1vS3V/IKRvK6JwANEItNffydx7Mp0MfegBOppYxsRLXA/fBT7/DU7xMfeitV17hwluQvGcXrnwRcJrnVxAYA05m/9uMG4OOkwIiFeaKklI1vxIVAQ+Sgj3N4Dehh09/RmJbkHxnGnYze4SUBP5FMMbEZJGeWBcIm/ID8IyY+COKrgHARRX38bPpbuVNb098bjNrhJwE3ShpRecHc89Ut+BH5xrdn5DDiEV8D/An4bfjHxAXamv4mMlqrSwJeMrUxTF3FpkCfiPLumQzqBBBfB7RAomLKFBU2H5Ghy39is+R3GanVJgHvm9ocuk5kU6AvhLY+QVSG/jNz+I14wj/3TA1UGzUgJvnvjNDqE4BvSa4x0hRYWiGeZlewF9x5tISRjqgUR5JL+Y14Yhd+PEVL0x+upq9ndNaXBPyL5EkTm0Msq0zc0ZElQtc5cUU+Ix1RKaAXwW/E/aY/mFNpwguMyvqTgKskjSi77DhSIq5pQWEQ150DCYJXfX4SY76akMhobC4JeNLUJjFjDbuFXadGIxDCIUAsht+Hu2w5MlPXUlkleSkjsdkkoJ+pjaLH5Gx+cA5z9e5iRjviAlzfmtU9V/lIr1RdzpYnJP+ZEdh8AvANyUUmNop4WQUNQhzmp7uKGO2ICwDFOH4fbvp9aJL5xtXz7xl97UkCvi950MRmkZZTLu5kU6CTTUKxzPB1ANBAhkZRQj0w251TEL6u+98GpfMbcYwN5fe8Zo+2it7jjLr2JQG/kcw1sRHtOhZnU6BjfDUxI/R1ABnZc5vRi4PTxZz1BbpmkCMFNOH2m5Ej7uqUEpj1hI1pq9nf4xpHfaKt6a8Po629ScD9OBiY2JRmreWm4RLX7wv3tIDT6BNvX3gdBBtZiA4t2Vak627SO5TJQ/6G/cWBdPM9lej0f7I13GGg7Pxy0Yj2v87wjQ+0Nf3Nx5UzI63dSUBHUxtVzylsCnSBj/ZODf3dL9pS/ew4XAhRecAESWo2rwkuhozccrFgU6HoMC5L3NgmudqRztKQHycbfN35lgtLtCTW+3HVzAhrfwLQQHKGiU0Lm1DTAbw/tJ3zNoZ7YoR+/IM9UmvdgwCradjOrttbLIpKol0dwCaOU/57c3IDl0Y8n9o8zw4fZgXOnWEBtrENm/FbsZk3t42JU2laEulsyf9kdHUnCfgnyZ2mTi53d6KdqM3a4OUh9Y2hAXTg7BxxS7v6N4Gih+S5gemBgMnGA8Xe9w6geQ9KbXh+mKSBOVMY7xcJ+LbD4cg8tx9LQSBrm/7kekHPjQZgt7iXUdW9JOBnkukmNrc9x+NBuZcfqn1cuj2c0b+xS/KUvmOcPpGsdJmQJaavLhB7TsSDSoOrd/j7T8XFx+sLxFtTssXD8ndd1UxtcMCVTH1xLFYaWmJChssxS7Q1/bVnNHU3CbgF+4+JTQ+bHT9Uu/hkv3A6xgfPyTU26oT77hYjMoOrA1xlIDHIzCu3ItDDLAul85W7ioIECckLnrmJZBgVlf2n4/X+Tb2nsRfANrYZo63pbyqulBlJ3U4CXje1IfaZzs3DJm46UP/SMEbQrrLwbhhd65CwfXlohug+KVsMX5Arpq7KF4s2FwalUlSlIJKCDve8worgVF5tQI9XBP+3SRllgWzydvnbUbZHcosAj1G8tnIzRtndRoOs5wfVvwCIKz3cNfP7sYN/6ZOmq19mu+RljKB+JAGjTTUF4l6XH655vjm6/qeGqkb9fFBQ+yp9KnuvC+GeeDp1Aaxp+judrqWgi1LhTxk5/UkAviW53lRTYOMubAo0Sczi4xRbX6DkzufpFp95Ny2UxA+CQ3yeZpv+NuzT0vQHLeGbGDX9SwJ+LHnGRBLw+Yk4hUUMcuSi+jcMYXKgtqN+pB3ccqgklG+YY4Hm+OGyfF3b9SuMlv4mAVdjbNtEEsDToxk+0D0luMuuL3CXzufpJluPCqdpDEqEfJ76CTEoTRjJKOl/EtDEVFNgP24g2omZ+jDg491/lMrHYVwBQcqZ13l6CVEoTeOva3FVzAgZjSRgoKl56BfeY1OgLnYaH87JYefREj5PxwmFwTCwencxn6cmQmArjMStBjgl+a+MjNFJAL4hucxEEpCVXy7u7cpThI7NA886DHQeT0U4HzrIoVMQBtpRIVBL1SaMsd0aAMpgDRkVo5cE/FDyiIkkYN/JeNCZzg9dHT9YHI5SGMq+17Xmu/KBi0NyDTwjT6UNqRColBNWaGv6e4rRMLpJwH9J5ptIAuB0xg9dDR/rkxpK4x+bN/3iy8MyQvt+4dnAZ2r31V0N0J9RkEnAQ6aaAvvPZFNg2Lxentah4R4WXhzMng1vysrNkkJzDCyX+eVLQzL4XEMmHDJL9DT9LcZVMCMggSSgm4kEALPlfx/CABMmw7T6jWWVcfbbM45aFJ6JDES+bJRAdpW3tY+Faul8ERyW/AEjH3EuAWggOdtEEgBb1PvYFBgKYT4TJsYuZZnXR12IMLH1cAn7AUIg5Ke3HNTS9IcM8LeMesT5ScAVkntMJAEHTsfZaFZPIolCw16Y4Oy/n9xxNNxAA2MkPtf6cfJKba1YDzDaEVUlAb+QzDSRBMC/nBtB3Qh3vrB1wo+nlPLZesqeU7JDXSvwCvjbIF7l1ZVdJ2pr+uvMKEdUlwTcjut5E0nAgNlsCqwLYX8bNtjl7S/heBgvC7dahMbTP/AqoNZ8+p200PQZqsFMXPUywhE1SQJaGWkKlN8BRpW4MdScd3dKCTzrw8afe9L4x2eu3Ru+Jcg7nOqpFW/vEAsabTVgl+TljGxEbZKA8aaaAu/vxqbAmnLNnvA38sNJLP/7TlTbQpeUK6kIElI+3+p5dYukoIFSAyD+8HNGNKK2CcB3JDeZSAIOnSkN5tm5UVyc8GhXgcQFuXy+nvOeLilK1s5HnxXw+daA01YX6NhKUV64jdGMqGsS8G8YBzeRBCzZVhQ0t3GzqJrLthcpefYs/0eDe0/GQ187uM/GPDufb9XsMTlb1zbanFGMqG8ScK1k3EQSAAczbhiV88Y2yaJUwfUhu/+jw/cX5ir5bvtMz+bzrYJN+qeF3oBZ1XQmoxcRVhLwN1NNga8PZ1NgZWw1Us205vjl+Xy+EZKdVYGl24v4fCshVBNTs7U0/W2U/DYjFxFmEjDERBKQW1guHuzBkvT5HL5AzentuYGc546SfgTkfNlEqp7XtEgWO45oafpLlvwxIxYRdgJwqeRKE0kANpQ/vsGmwK9yxprwm4jSc8qp/R8xomkvbCRllPHZavheK2vBkLyG0YpQlQRciWtiE0kAGt7YFPgPzl4X/oYyaSXL/1EjKj5h43Q6EwCVyosXQVNGKUJ1EvDfkgUmkoCh89gUeI4w6gm73+KRXrxq4TRACKozx+J8rmfZdEC6kmbdynqmGZ0IXUnAY6aaApuPYFOgCue/CSt4+o8qX3gv3CrAx+upBQDe2TEWXKtpwHLJbzIyETqTgF4mkgDI3j70Fk+qjbukBCYsYT3Tm9tydjvKXL07PEVJlLzZ9JccVEI04KjkjxiRCN0JwCWS80wkAUdjbAoEN+wPZ9MeTL2FyBOTNmHMp5fEKwKNe/boaLklhYfw7xiNCFNJwPck95tIAlbuZFPgsyE0cMEbni5uJJg4v/6jpdSRSAqEkDThYUYhwnQS8CvJbBNJADXrk8Tklfl1fn6n0sp4WiO/JEZAkVjXFftPx8W1raJdmcNUhaamvx6MPoQtSUBj9OiZSAJajsyM9qYtT+/Ld9R+00bnN4M/WdnddV08JqDVEXUPADghqhBWqgRzJRsw8hA2JQFtTCQABcUVkTevQRIAXfeanDzwf4MRwkYt2UNBVq0Q2Hd6dtAcWhMs3loobngz2usJ39Oe41qa/vZKXsGIQ9iWADSQnGwiCYCBTdQ3IPD+bili6qp8kZ1/4SkEGuQY9cP/DYMcWRNiMmTYvFxxJLn0gvVUJpfYur3F4pVhHMsF524o1LHVYfb3l4w2hK1JwGWSW00kAat2synwqxWBR3unBpvz3walM+iT9eat7WKBqM2riRnB/8spnH+w34wcLTIokncyyhC2JwE/kUwxkQSMXJTHDYkkSa0iSmV6up/eYHQhXEkCbpSMm0gCWo/K5MZEkqQWMS5NTX8TGVUI15KAl0w1BVLTniRJpU1/rZLF5ye0nHE2S36XEYVwMQl430QScCK1VNzUhiNuJEmq4YJNWpr+YpL/zkhCuJoAfEtyjYkkYM2eYnrbkyQZOvvP1NL0h/LC9YwihOtJwL9InjSRBIxezKZAkiTD44uD00W5nqa/Fxg9CF+SgKskC00kAW1GsymQJMn6896uKSIrX0v0T2TUIHxLAp40kQAUllQEM/HcwEiSrCuva50s9p3U0vS3SvJSRgzCxySgn4kkAKY39LsnSbKuXLRFSwHzhOQ/M1IQviYA35BcZCIJWLu3OFDI42ZGkmRtOGC2lqY/ZBi/Z5QgfE8Cvi950EQSMG4pmwJJkqw5XxqSIcortGxPjzM6EFFJAn4jmWsiCWg3NosbG0mS1fK+rikip0BL018fRgUiaknA/ZIVuhOAopIK8Zc+adzgSJK8aNPfgdNamv7m42qUEYGIYhLQ0UQV4HQ6mwJJkqyccBVdsq1Ix1a0H1eijAREVBOABpIzTCQBG/axKZAkyQv53hwtt5PZkv/JKEBEPQn4J8mdJpKACcvzueGRJPklXxmmpekPjQX3cvcniC+SgJ9JpptIAjp8yKZAkiSTxP3dtDX9teeuTxBfTwJukSzTnQAUxyvEE33ZFEiSUeYf30gWh86U6thypuLqkzs+QVyYBLxuogqQlFEmbmnHpkCSjGrT37LtWpr+tktexp2eIKpOAkabSAI2HShhUyBJRpBD52lp+kuT/Cl3eIK4eALwLcn1JpKAySvZFEiSUeLrw7U0/eFu4Sbu7gRRsyTgx5JnTCQBncezKZAko8AHe6SK3EItTX+vcFcniNolAVejR093AlASrxB/7cemQJL0venvSLKWpr+R3M0Jom5JQBMTVYDkzDJxW3s2BZKkr01/K3dqafpbiytN7uQEUfckYKCJJGDLwRJxdQtuliTpGxMXaGn6OyX5r9zBCaJ+CcA3JJeZSAKmrmJTIEn6xOYjMkSF+qY/lBcacvcmiHCSgB9KHjGRBHSdyKZAkvSBD72VKvIKtRiQPsVdmyDCTQL+SzJfe1NgaYV4+h02BZKky7zhzWRxPEVL019/7tYEoSYJeMhEFSCWVSZu78CmQJJ0telv1W4tTX+LcWXJnZog1CUB3UwkAdsOl4hrWiRzQyVJxzhiYZ6OLeKw5A+4QxOE2gSggeRsE0nAjDUF3FBJ0iG2HJmpY2tAhvFb7s4EoScJuEJyj4kkoMfkbG6sJOkA/9wzVRQUa2n6e4C7MkHoTQJ+IZmpOwGIl1WIJv3ZFEiSNvOmNjFxIlVL019n7sYEYSYJuF2yXHcSkJpdJu7oyKZAkrSRDZsliTV7tKiIz8SVJHdigjCXBLQycRWw8yibAknSRo76REvT3y7Jy7kDE4T5JGC8iSRg1lo2BZKkTWw9SsutYIbkz7nzEoQdCcB3JDeZSAJ6TWVTIEnawEd6aWn6K5O8jbsuQdiVBPwbNHt0JwDlFZwMIEkb7H01Kf01525LEHYmAdeiUd9EJSBxfi43YpI0pPS3bLsWpb+x3GUJwu4k4G/CEJZuKwpOItyUSVIfJ67QYhGyUfLb3GEJwv4kYIipJOBkaql4rE8qN2aS1MCxS7V0/CdL/pg7K0G4kQBcKrnSVBIAB8Gh83LF1S24QZOkCuLbmr2uQMvnLHkNd1WCcCsJuFLyuDCIw0ml4pl3qRpIkmGycecUseNIia7PuCl3U4JwMwn4b8kCYRhLthWJh3vyWoAk69vsh4mb3EJt4p/vcRclCLeTgMeEBSiXe9a8jYXi0d5MBEiytnx5aIbYc0LrgM9yyW9yByUI95OAXsIibDtcItqPzRKNWnJigCQvNtvffVK22HtS+2TvUckfceckCD8SgEsk5wnLANWypduLRKfxWeKWdjQXIlnih4Vv72nZ4tNdRaIkXmHis8RM4e+4axKEX0nA9yT3C4txLFYqFm0uDESFukzIEq8lZogXBqeTpDd8aUiGaDUqU7Qdkyn6TM8Oxviw5mGupUHGtyZ4mLslQfiZBPxKMlsQBEFciB7cJQnC7ySgMXryuNcRBPEVzJVswB2SIPxPAtpwvyMI4iz2Sl7BnZEgopEANJD8kPseQUQemZK/5K5IENFKAr4luYD7H0FEFpgvvIW7IUFEMwm4THIF90GCiCSe5y5IEEwCmAQQRLTQnrsfQRDnkoCl3BMJIhLoy12PIIivJgHoCZjCvZEgGPwJgoheEoDpgH7cIwnCS7TjLkcQRHWJwDOSJdwvCcILoNu/CXc2giBqmgRcI3mSeydBOI10yZu4oxEEUdsk4IfCQhdBgiBqhPWS/4s7GUEQdU0C0BfwgmQe91OCcALw+kAvz6XcwQiCCCMR+LngqCBB2I5DkjdwxyIIQkUi8LhkMvdZgrAKaNrtJXkZdymCIFQmAZdL9pDM575LEMYxR/J/c2ciCEJnIvBjySGSRdyDCUI7PpVsxJ2IIAjTiUBf8YW1KEEQ6lAh+ZHkNdx5CIKwKRGAp8Bzkpu5TxNEqDh19trtp9xpCIKwPRn4tWR3yc+5dxNEnZB09ortVslvcFchCMLFZOBnkq9Kzji7qREEcSFSxRfCW60k/1uyAXcPgiB8Swh+KvmAZDvJDyWXSe6TzBBsKCT8Rd7ZBHi75GLJUZKtJR+U/Al3BoIgCIIgCIIgCIIgCIIgCIIgCIIgCIIgCIIgCIIgCIIgCIIgCIIgCIIgCIIgCIIgCOL/BxM4q6zA0/gRAAAAAElFTkSuQmCC;" parent="1" vertex="1">
          <mxGeometry x="1231" y="136" width="56" height="56" as="geometry" />
        </mxCell>
        <mxCell id="FkkPFLlIcoBWppN_FDq2-36" value="&lt;font color=&quot;#0080FF&quot;&gt;Kubernetes Cluster&lt;/font&gt;" style="text;html=1;strokeColor=none;fillColor=none;align=center;verticalAlign=middle;whiteSpace=wrap;rounded=0;fontFamily=Helvetica;fontStyle=1" parent="1" vertex="1">
          <mxGeometry x="1224" y="192" width="72" height="30" as="geometry" />
        </mxCell>
        <mxCell id="FkkPFLlIcoBWppN_FDq2-38" value="" style="endArrow=classic;html=1;rounded=0;fontSize=12;strokeColor=#0080ff;strokeWidth=3;exitX=0.25;exitY=0;exitDx=0;exitDy=0;entryX=0;entryY=0.5;entryDx=0;entryDy=0;startArrow=none;" parent="1" source="nL69cGTU7N5PR8f_p0Is-59" target="FkkPFLlIcoBWppN_FDq2-35" edge="1">
          <mxGeometry width="50" height="50" relative="1" as="geometry">
            <mxPoint x="1001" y="242" as="sourcePoint" />
            <mxPoint x="1001" y="216" as="targetPoint" />
            <Array as="points">
              <mxPoint x="999" y="164" />
            </Array>
          </mxGeometry>
        </mxCell>
        <mxCell id="FkkPFLlIcoBWppN_FDq2-40" value="" style="endArrow=none;html=1;rounded=0;strokeWidth=3;strokeColor=#0080FF;exitX=0.75;exitY=0;exitDx=0;exitDy=0;" parent="1" source="FkkPFLlIcoBWppN_FDq2-86" edge="1">
          <mxGeometry width="50" height="50" relative="1" as="geometry">
            <mxPoint x="1145" y="214" as="sourcePoint" />
            <mxPoint x="1145" y="164" as="targetPoint" />
          </mxGeometry>
        </mxCell>
        <mxCell id="FkkPFLlIcoBWppN_FDq2-41" value="" style="endArrow=classic;html=1;rounded=0;fontSize=12;strokeColor=#0080ff;strokeWidth=3;entryX=0.5;entryY=1;entryDx=0;entryDy=0;exitX=0.5;exitY=1;exitDx=0;exitDy=0;" parent="1" source="FkkPFLlIcoBWppN_FDq2-43" target="nL69cGTU7N5PR8f_p0Is-47" edge="1">
          <mxGeometry width="50" height="50" relative="1" as="geometry">
            <mxPoint x="1318" y="308" as="sourcePoint" />
            <mxPoint x="787" y="313" as="targetPoint" />
            <Array as="points">
              <mxPoint x="1260" y="488" />
              <mxPoint x="756" y="488" />
            </Array>
          </mxGeometry>
        </mxCell>
        <mxCell id="FkkPFLlIcoBWppN_FDq2-48" value="" style="endArrow=none;html=1;rounded=0;strokeWidth=3;strokeColor=#0080FF;entryX=0.5;entryY=1;entryDx=0;entryDy=0;exitX=0.5;exitY=0;exitDx=0;exitDy=0;" parent="1" source="FkkPFLlIcoBWppN_FDq2-43" target="FkkPFLlIcoBWppN_FDq2-36" edge="1">
          <mxGeometry width="50" height="50" relative="1" as="geometry">
            <mxPoint x="984" y="330" as="sourcePoint" />
            <mxPoint x="1034" y="280" as="targetPoint" />
          </mxGeometry>
        </mxCell>
        <mxCell id="FkkPFLlIcoBWppN_FDq2-49" value="" style="endArrow=classic;html=1;rounded=0;exitX=0.5;exitY=0;exitDx=0;exitDy=0;strokeWidth=3;strokeColor=#0080FF;entryX=0.5;entryY=1;entryDx=0;entryDy=0;" parent="1" source="FkkPFLlIcoBWppN_FDq2-35" target="FkkPFLlIcoBWppN_FDq2-53" edge="1">
          <mxGeometry width="50" height="50" relative="1" as="geometry">
            <mxPoint x="984" y="236" as="sourcePoint" />
            <mxPoint x="1362" y="74" as="targetPoint" />
          </mxGeometry>
        </mxCell>
        <mxCell id="FkkPFLlIcoBWppN_FDq2-50" value="" style="html=1;verticalLabelPosition=bottom;align=center;labelBackgroundColor=#ffffff;verticalAlign=top;strokeWidth=2;strokeColor=#0080F0;shadow=0;dashed=0;shape=mxgraph.ios7.icons.globe;fillColor=none;" parent="1" vertex="1">
          <mxGeometry x="1227" y="-72" width="64" height="64" as="geometry" />
        </mxCell>
        <mxCell id="FkkPFLlIcoBWppN_FDq2-53" value="&lt;font color=&quot;#0080FF&quot;&gt;Public Endpoint&lt;/font&gt;" style="text;html=1;strokeColor=none;fillColor=none;align=center;verticalAlign=middle;whiteSpace=wrap;rounded=0;fontFamily=Helvetica;fontStyle=1" parent="1" vertex="1">
          <mxGeometry x="1223" y="-4" width="72" height="30" as="geometry" />
        </mxCell>
        <mxCell id="FkkPFLlIcoBWppN_FDq2-58" value="" style="shape=image;imageAspect=0;aspect=fixed;verticalLabelPosition=bottom;verticalAlign=top;image=https://upload.wikimedia.org/wikipedia/commons/d/d5/Slack_icon_2019.svg;" parent="1" vertex="1">
          <mxGeometry x="310" y="441" width="64" height="64" as="geometry" />
        </mxCell>
        <mxCell id="FkkPFLlIcoBWppN_FDq2-59" value="&lt;font color=&quot;#0080FF&quot;&gt;&lt;b&gt;Slack&lt;/b&gt;&lt;/font&gt;" style="text;html=1;strokeColor=none;fillColor=none;align=center;verticalAlign=middle;whiteSpace=wrap;rounded=0;" parent="1" vertex="1">
          <mxGeometry x="312" y="507" width="60" height="30" as="geometry" />
        </mxCell>
        <mxCell id="FkkPFLlIcoBWppN_FDq2-63" value="" style="endArrow=none;html=1;rounded=0;strokeWidth=2;strokeColor=#FF4949;entryX=0.25;entryY=1;entryDx=0;entryDy=0;exitX=0.5;exitY=0;exitDx=0;exitDy=0;" parent="1" source="FkkPFLlIcoBWppN_FDq2-60" target="J5Gs9Op7dkJU3k7fwKM5-4" edge="1">
          <mxGeometry width="50" height="50" relative="1" as="geometry">
            <mxPoint x="590" y="278" as="sourcePoint" />
            <mxPoint x="640" y="228" as="targetPoint" />
          </mxGeometry>
        </mxCell>
        <mxCell id="FkkPFLlIcoBWppN_FDq2-64" value="" style="endArrow=classic;html=1;rounded=0;entryX=0.5;entryY=0;entryDx=0;entryDy=0;strokeColor=#FF4949;strokeWidth=3;fillColor=#f8cecc;exitX=0.5;exitY=1;exitDx=0;exitDy=0;" parent="1" source="FkkPFLlIcoBWppN_FDq2-65" target="FkkPFLlIcoBWppN_FDq2-58" edge="1">
          <mxGeometry width="50" height="50" relative="1" as="geometry">
            <mxPoint x="340" y="181" as="sourcePoint" />
            <mxPoint x="656" y="209" as="targetPoint" />
            <Array as="points" />
          </mxGeometry>
        </mxCell>
        <mxCell id="FkkPFLlIcoBWppN_FDq2-65" value="&lt;b&gt;Notification&lt;/b&gt;" style="text;html=1;strokeColor=#6c8ebf;fillColor=#dae8fc;align=center;verticalAlign=middle;whiteSpace=wrap;rounded=0;" parent="1" vertex="1">
          <mxGeometry x="306" y="326" width="72" height="30" as="geometry" />
        </mxCell>
        <mxCell id="FkkPFLlIcoBWppN_FDq2-68" value="" style="endArrow=none;html=1;rounded=0;strokeColor=#FF4949;strokeWidth=3;exitX=0.5;exitY=0;exitDx=0;exitDy=0;entryX=0;entryY=0.5;entryDx=0;entryDy=0;" parent="1" source="FkkPFLlIcoBWppN_FDq2-65" target="FkkPFLlIcoBWppN_FDq2-60" edge="1">
          <mxGeometry width="50" height="50" relative="1" as="geometry">
            <mxPoint x="606" y="280" as="sourcePoint" />
            <mxPoint x="656" y="230" as="targetPoint" />
            <Array as="points">
              <mxPoint x="342" y="104" />
            </Array>
          </mxGeometry>
        </mxCell>
        <mxCell id="FkkPFLlIcoBWppN_FDq2-70" value="" style="endArrow=none;html=1;rounded=0;strokeWidth=2;strokeColor=#FF4949;exitX=0.5;exitY=0;exitDx=0;exitDy=0;entryX=0.25;entryY=1;entryDx=0;entryDy=0;" parent="1" source="FkkPFLlIcoBWppN_FDq2-69" target="sGVQRTdD7NmLHFWW4TRz-1" edge="1">
          <mxGeometry width="50" height="50" relative="1" as="geometry">
            <mxPoint x="490" y="98" as="sourcePoint" />
            <mxPoint x="421" y="156" as="targetPoint" />
          </mxGeometry>
        </mxCell>
        <mxCell id="FkkPFLlIcoBWppN_FDq2-73" value="" style="endArrow=none;html=1;rounded=0;strokeWidth=2;strokeColor=#FF4949;exitX=0.5;exitY=0;exitDx=0;exitDy=0;entryX=0.25;entryY=1;entryDx=0;entryDy=0;" parent="1" source="FkkPFLlIcoBWppN_FDq2-72" target="sGVQRTdD7NmLHFWW4TRz-2" edge="1">
          <mxGeometry width="50" height="50" relative="1" as="geometry">
            <mxPoint x="490" y="194" as="sourcePoint" />
            <mxPoint x="440" y="260" as="targetPoint" />
          </mxGeometry>
        </mxCell>
        <mxCell id="FkkPFLlIcoBWppN_FDq2-74" value="" style="endArrow=none;html=1;rounded=0;strokeWidth=3;strokeColor=#FF4949;entryX=0;entryY=0.5;entryDx=0;entryDy=0;" parent="1" target="FkkPFLlIcoBWppN_FDq2-69" edge="1">
          <mxGeometry width="50" height="50" relative="1" as="geometry">
            <mxPoint x="342" y="200" as="sourcePoint" />
            <mxPoint x="506" y="164" as="targetPoint" />
          </mxGeometry>
        </mxCell>
        <mxCell id="FkkPFLlIcoBWppN_FDq2-75" value="" style="endArrow=none;html=1;rounded=0;strokeWidth=3;strokeColor=#FF4949;entryX=0;entryY=0.5;entryDx=0;entryDy=0;" parent="1" target="FkkPFLlIcoBWppN_FDq2-72" edge="1">
          <mxGeometry width="50" height="50" relative="1" as="geometry">
            <mxPoint x="342" y="294" as="sourcePoint" />
            <mxPoint x="486" y="204" as="targetPoint" />
          </mxGeometry>
        </mxCell>
        <mxCell id="FkkPFLlIcoBWppN_FDq2-76" value="&lt;b&gt;Fail&lt;/b&gt;" style="text;html=1;strokeColor=#FF0000;fillColor=#E8201A;align=center;verticalAlign=middle;whiteSpace=wrap;rounded=0;fontColor=#ffffff;" parent="1" vertex="1">
          <mxGeometry x="898" y="254" width="40" height="16" as="geometry" />
        </mxCell>
        <mxCell id="FkkPFLlIcoBWppN_FDq2-77" value="" style="endArrow=none;html=1;rounded=0;strokeColor=#FF4949;strokeWidth=2;entryX=0.5;entryY=0;entryDx=0;entryDy=0;exitX=0.75;exitY=1;exitDx=0;exitDy=0;" parent="1" source="nL69cGTU7N5PR8f_p0Is-18" target="FkkPFLlIcoBWppN_FDq2-76" edge="1">
          <mxGeometry width="50" height="50" relative="1" as="geometry">
            <mxPoint x="622" y="312" as="sourcePoint" />
            <mxPoint x="672" y="262" as="targetPoint" />
          </mxGeometry>
        </mxCell>
        <mxCell id="FkkPFLlIcoBWppN_FDq2-80" value="&lt;b&gt;Fail&lt;/b&gt;" style="text;html=1;strokeColor=#FF0000;fillColor=#E8201A;align=center;verticalAlign=middle;whiteSpace=wrap;rounded=0;fontColor=#ffffff;" parent="1" vertex="1">
          <mxGeometry x="898" y="142" width="40" height="16" as="geometry" />
        </mxCell>
        <mxCell id="FkkPFLlIcoBWppN_FDq2-94" value="" style="endArrow=classic;html=1;rounded=0;strokeColor=#FF4949;strokeWidth=3;entryX=1;entryY=0.5;entryDx=0;entryDy=0;startArrow=none;" parent="1" source="FkkPFLlIcoBWppN_FDq2-111" target="FkkPFLlIcoBWppN_FDq2-58" edge="1">
          <mxGeometry width="50" height="50" relative="1" as="geometry">
            <mxPoint x="959" y="605" as="sourcePoint" />
            <mxPoint x="742" y="381" as="targetPoint" />
            <Array as="points" />
          </mxGeometry>
        </mxCell>
        <mxCell id="FkkPFLlIcoBWppN_FDq2-95" value="" style="endArrow=none;html=1;rounded=0;strokeColor=#FF4949;strokeWidth=2;entryX=0.5;entryY=0;entryDx=0;entryDy=0;exitX=0.75;exitY=1;exitDx=0;exitDy=0;" parent="1" source="nL69cGTU7N5PR8f_p0Is-27" target="FkkPFLlIcoBWppN_FDq2-81" edge="1">
          <mxGeometry width="50" height="50" relative="1" as="geometry">
            <mxPoint x="680" y="410" as="sourcePoint" />
            <mxPoint x="924" y="268" as="targetPoint" />
          </mxGeometry>
        </mxCell>
        <mxCell id="FkkPFLlIcoBWppN_FDq2-96" value="" style="endArrow=none;html=1;rounded=0;strokeColor=#FF4949;strokeWidth=2;entryX=0.5;entryY=0;entryDx=0;entryDy=0;exitX=0.75;exitY=1;exitDx=0;exitDy=0;" parent="1" source="nL69cGTU7N5PR8f_p0Is-15" target="FkkPFLlIcoBWppN_FDq2-80" edge="1">
          <mxGeometry width="50" height="50" relative="1" as="geometry">
            <mxPoint x="926" y="238" as="sourcePoint" />
            <mxPoint x="926" y="262" as="targetPoint" />
          </mxGeometry>
        </mxCell>
        <mxCell id="FkkPFLlIcoBWppN_FDq2-99" value="" style="endArrow=none;html=1;rounded=0;strokeColor=#FF4949;strokeWidth=2;exitX=1;exitY=0.5;exitDx=0;exitDy=0;" parent="1" source="FkkPFLlIcoBWppN_FDq2-80" edge="1">
          <mxGeometry width="50" height="50" relative="1" as="geometry">
            <mxPoint x="928" y="240" as="sourcePoint" />
            <mxPoint x="958" y="150" as="targetPoint" />
          </mxGeometry>
        </mxCell>
        <mxCell id="FkkPFLlIcoBWppN_FDq2-101" value="" style="endArrow=none;html=1;rounded=0;strokeColor=#FF4949;strokeWidth=2;exitX=1;exitY=0.5;exitDx=0;exitDy=0;" parent="1" source="FkkPFLlIcoBWppN_FDq2-76" edge="1">
          <mxGeometry width="50" height="50" relative="1" as="geometry">
            <mxPoint x="940" y="152" as="sourcePoint" />
            <mxPoint x="958" y="262" as="targetPoint" />
          </mxGeometry>
        </mxCell>
        <mxCell id="FkkPFLlIcoBWppN_FDq2-106" value="" style="endArrow=none;html=1;rounded=0;strokeColor=#FF4949;strokeWidth=2;exitX=0.5;exitY=0.206;exitDx=0;exitDy=0;exitPerimeter=0;" parent="1" edge="1">
          <mxGeometry width="50" height="50" relative="1" as="geometry">
            <mxPoint x="1072" y="189.98000000000002" as="sourcePoint" />
            <mxPoint x="1072" y="263" as="targetPoint" />
          </mxGeometry>
        </mxCell>
        <mxCell id="FkkPFLlIcoBWppN_FDq2-110" value="" style="endArrow=none;html=1;rounded=0;strokeColor=#FF4949;strokeWidth=2;" parent="1" edge="1">
          <mxGeometry width="50" height="50" relative="1" as="geometry">
            <mxPoint x="958" y="262" as="sourcePoint" />
            <mxPoint x="1073" y="262" as="targetPoint" />
          </mxGeometry>
        </mxCell>
        <mxCell id="FkkPFLlIcoBWppN_FDq2-112" value="" style="endArrow=none;html=1;rounded=0;strokeColor=#FF4949;strokeWidth=3;entryX=1;entryY=0.5;entryDx=0;entryDy=0;" parent="1" target="FkkPFLlIcoBWppN_FDq2-111" edge="1">
          <mxGeometry width="50" height="50" relative="1" as="geometry">
            <mxPoint x="959" y="474" as="sourcePoint" />
            <mxPoint x="372" y="462" as="targetPoint" />
            <Array as="points" />
          </mxGeometry>
        </mxCell>
        <mxCell id="FkkPFLlIcoBWppN_FDq2-111" value="&lt;b&gt;Notification&lt;/b&gt;" style="text;html=1;strokeColor=#6c8ebf;fillColor=#dae8fc;align=center;verticalAlign=middle;whiteSpace=wrap;rounded=0;" parent="1" vertex="1">
          <mxGeometry x="464" y="459" width="72" height="30" as="geometry" />
        </mxCell>
        <mxCell id="B5KeRd0ztd1TKOsTL-My-3" value="" style="endArrow=none;html=1;rounded=0;strokeColor=#FF4949;strokeWidth=2;entryX=0;entryY=0.5;entryDx=0;entryDy=0;exitX=1;exitY=0.5;exitDx=0;exitDy=0;" parent="1" source="B5KeRd0ztd1TKOsTL-My-1" target="B5KeRd0ztd1TKOsTL-My-2" edge="1">
          <mxGeometry width="50" height="50" relative="1" as="geometry">
            <mxPoint x="1047" y="314" as="sourcePoint" />
            <mxPoint x="1047" y="290" as="targetPoint" />
          </mxGeometry>
        </mxCell>
        <mxCell id="B5KeRd0ztd1TKOsTL-My-4" value="" style="endArrow=none;html=1;rounded=0;strokeColor=#FF4949;strokeWidth=2;entryX=0.5;entryY=1;entryDx=0;entryDy=0;exitX=0.75;exitY=0;exitDx=0;exitDy=0;" parent="1" source="nL69cGTU7N5PR8f_p0Is-59" target="B5KeRd0ztd1TKOsTL-My-1" edge="1">
          <mxGeometry width="50" height="50" relative="1" as="geometry">
            <mxPoint x="1049" y="316" as="sourcePoint" />
            <mxPoint x="1049" y="292" as="targetPoint" />
          </mxGeometry>
        </mxCell>
        <mxCell id="B5KeRd0ztd1TKOsTL-My-5" value="" style="endArrow=none;html=1;rounded=0;strokeColor=#FF4949;strokeWidth=2;entryX=0.5;entryY=1;entryDx=0;entryDy=0;exitX=0.25;exitY=0;exitDx=0;exitDy=0;" parent="1" source="FkkPFLlIcoBWppN_FDq2-86" target="B5KeRd0ztd1TKOsTL-My-2" edge="1">
          <mxGeometry width="50" height="50" relative="1" as="geometry">
            <mxPoint x="1051" y="318" as="sourcePoint" />
            <mxPoint x="1051" y="294" as="targetPoint" />
          </mxGeometry>
        </mxCell>
        <mxCell id="B5KeRd0ztd1TKOsTL-My-6" value="" style="endArrow=none;html=1;rounded=0;strokeWidth=3;strokeColor=#0080FF;exitX=1;exitY=0.5;exitDx=0;exitDy=0;entryX=0;entryY=0.5;entryDx=0;entryDy=0;" parent="1" source="J5Gs9Op7dkJU3k7fwKM5-32" target="UMifehnFGFl9r4CTKI45-21" edge="1">
          <mxGeometry width="50" height="50" relative="1" as="geometry">
            <mxPoint x="450" y="272" as="sourcePoint" />
            <mxPoint x="500" y="222" as="targetPoint" />
          </mxGeometry>
        </mxCell>
        <mxCell id="CFLC9kK76X8yNZ2CattP-1" value="" style="shape=image;imageAspect=0;aspect=fixed;verticalLabelPosition=bottom;verticalAlign=top;image=https://raw.githubusercontent.com/vital987/vital987/master/assets/selenium.svg;" parent="1" vertex="1">
          <mxGeometry x="584.55" y="246" width="32.9" height="32" as="geometry" />
        </mxCell>
        <mxCell id="sGVQRTdD7NmLHFWW4TRz-1" value="&lt;b&gt;Build&lt;/b&gt;" style="text;html=1;strokeColor=#6c8ebf;fillColor=#dae8fc;align=center;verticalAlign=middle;whiteSpace=wrap;rounded=0;" parent="1" vertex="1">
          <mxGeometry x="465" y="144" width="92" height="16" as="geometry" />
        </mxCell>
        <mxCell id="sGVQRTdD7NmLHFWW4TRz-2" value="&lt;b&gt;Test&lt;/b&gt;" style="text;html=1;strokeColor=#6c8ebf;fillColor=#dae8fc;align=center;verticalAlign=middle;whiteSpace=wrap;rounded=0;" parent="1" vertex="1">
          <mxGeometry x="465" y="240" width="92" height="16" as="geometry" />
        </mxCell>
        <mxCell id="sGVQRTdD7NmLHFWW4TRz-5" value="" style="endArrow=none;html=1;rounded=0;strokeColor=#E8201A;strokeWidth=2;entryX=0.25;entryY=1;entryDx=0;entryDy=0;exitX=0.5;exitY=0;exitDx=0;exitDy=0;" parent="1" source="sGVQRTdD7NmLHFWW4TRz-4" target="FkkPFLlIcoBWppN_FDq2-8" edge="1">
          <mxGeometry width="50" height="50" relative="1" as="geometry">
            <mxPoint x="1051" y="336" as="sourcePoint" />
            <mxPoint x="1101" y="286" as="targetPoint" />
          </mxGeometry>
        </mxCell>
        <mxCell id="sGVQRTdD7NmLHFWW4TRz-7" value="" style="endArrow=none;html=1;rounded=0;strokeColor=#0080FF;strokeWidth=2;exitX=0.5;exitY=0;exitDx=0;exitDy=0;entryX=0.75;entryY=1;entryDx=0;entryDy=0;" parent="1" source="FkkPFLlIcoBWppN_FDq2-28" target="FkkPFLlIcoBWppN_FDq2-85" edge="1">
          <mxGeometry width="50" height="50" relative="1" as="geometry">
            <mxPoint x="1051" y="336" as="sourcePoint" />
            <mxPoint x="1101" y="286" as="targetPoint" />
          </mxGeometry>
        </mxCell>
        <mxCell id="B5KeRd0ztd1TKOsTL-My-1" value="&lt;b&gt;Fail&lt;/b&gt;" style="text;html=1;strokeColor=#FF0000;fillColor=#E8201A;align=center;verticalAlign=middle;whiteSpace=wrap;rounded=0;fontColor=#ffffff;" parent="1" vertex="1">
          <mxGeometry x="1024" y="182" width="42" height="16" as="geometry" />
        </mxCell>
        <mxCell id="B5KeRd0ztd1TKOsTL-My-2" value="&lt;b&gt;Fail&lt;/b&gt;" style="text;html=1;strokeColor=#FF0000;fillColor=#E8201A;align=center;verticalAlign=middle;whiteSpace=wrap;rounded=0;fontColor=#ffffff;" parent="1" vertex="1">
          <mxGeometry x="1078" y="182" width="42" height="16" as="geometry" />
        </mxCell>
        <mxCell id="FkkPFLlIcoBWppN_FDq2-86" value="&lt;b&gt;Update deployment&lt;/b&gt;" style="text;html=1;strokeColor=#6c8ebf;fillColor=#dae8fc;align=center;verticalAlign=middle;whiteSpace=wrap;rounded=0;" parent="1" vertex="1">
          <mxGeometry x="1076" y="214" width="92" height="32" as="geometry" />
        </mxCell>
        <mxCell id="nL69cGTU7N5PR8f_p0Is-59" value="&lt;b&gt;Create deployment&lt;/b&gt;" style="text;html=1;strokeColor=#6c8ebf;fillColor=#dae8fc;align=center;verticalAlign=middle;whiteSpace=wrap;rounded=0;" parent="1" vertex="1">
          <mxGeometry x="976" y="214" width="92" height="32" as="geometry" />
        </mxCell>
        <mxCell id="FkkPFLlIcoBWppN_FDq2-43" value="&lt;b&gt;Pull Image&lt;/b&gt;" style="text;html=1;strokeColor=#6c8ebf;fillColor=#dae8fc;align=center;verticalAlign=middle;whiteSpace=wrap;rounded=0;" parent="1" vertex="1">
          <mxGeometry x="1220" y="312" width="80" height="18" as="geometry" />
        </mxCell>
        <mxCell id="FkkPFLlIcoBWppN_FDq2-85" value="&lt;b&gt;Deployment present&lt;br&gt;&lt;/b&gt;" style="text;html=1;strokeColor=#6c8ebf;fillColor=#dae8fc;align=center;verticalAlign=middle;whiteSpace=wrap;rounded=0;" parent="1" vertex="1">
          <mxGeometry x="1076" y="280" width="92" height="32" as="geometry" />
        </mxCell>
        <mxCell id="FkkPFLlIcoBWppN_FDq2-8" value="&lt;b&gt;Deployment absent&lt;br&gt;&lt;/b&gt;" style="text;html=1;strokeColor=#6c8ebf;fillColor=#dae8fc;align=center;verticalAlign=middle;whiteSpace=wrap;rounded=0;" parent="1" vertex="1">
          <mxGeometry x="976" y="280" width="92" height="32" as="geometry" />
        </mxCell>
        <mxCell id="nL69cGTU7N5PR8f_p0Is-60" value="&lt;b&gt;Check for Deployment on Cluster&lt;br&gt;&lt;/b&gt;" style="text;html=1;strokeColor=#6c8ebf;fillColor=#dae8fc;align=center;verticalAlign=middle;whiteSpace=wrap;rounded=0;" parent="1" vertex="1">
          <mxGeometry x="1032.01" y="348" width="80" height="48" as="geometry" />
        </mxCell>
        <mxCell id="sGVQRTdD7NmLHFWW4TRz-4" value="&lt;b&gt;Fail&lt;/b&gt;" style="text;html=1;strokeColor=#FF0000;fillColor=#E8201A;align=center;verticalAlign=middle;whiteSpace=wrap;rounded=0;fontColor=#ffffff;" parent="1" vertex="1">
          <mxGeometry x="978" y="330" width="42" height="16" as="geometry" />
        </mxCell>
        <mxCell id="FkkPFLlIcoBWppN_FDq2-28" value="&lt;b&gt;Pass&lt;/b&gt;" style="text;html=1;strokeColor=#00D100;fillColor=#4CAF50;align=center;verticalAlign=middle;whiteSpace=wrap;rounded=0;fontColor=#ffffff;" parent="1" vertex="1">
          <mxGeometry x="1125" y="331" width="40" height="16" as="geometry" />
        </mxCell>
        <mxCell id="FkkPFLlIcoBWppN_FDq2-102" value="" style="endArrow=none;html=1;rounded=0;strokeColor=#FF4949;strokeWidth=2;exitX=1;exitY=0.5;exitDx=0;exitDy=0;" parent="1" source="FkkPFLlIcoBWppN_FDq2-81" edge="1">
          <mxGeometry width="50" height="50" relative="1" as="geometry">
            <mxPoint x="940" y="264" as="sourcePoint" />
            <mxPoint x="958" y="360" as="targetPoint" />
          </mxGeometry>
        </mxCell>
        <mxCell id="FkkPFLlIcoBWppN_FDq2-81" value="&lt;b&gt;Fail&lt;/b&gt;" style="text;html=1;strokeColor=#FF0000;fillColor=#E8201A;align=center;verticalAlign=middle;whiteSpace=wrap;rounded=0;fontColor=#ffffff;" parent="1" vertex="1">
          <mxGeometry x="898" y="352" width="40" height="16" as="geometry" />
        </mxCell>
        <mxCell id="nL69cGTU7N5PR8f_p0Is-38" value="&lt;b&gt;Pass&lt;/b&gt;" style="text;html=1;strokeColor=#00CC00;fillColor=#4CAF50;align=center;verticalAlign=middle;whiteSpace=wrap;rounded=0;fontColor=#ffffff;" parent="1" vertex="1">
          <mxGeometry x="854" y="352" width="40" height="16" as="geometry" />
        </mxCell>
        <mxCell id="nL69cGTU7N5PR8f_p0Is-27" value="&lt;b&gt;Tag &amp;amp; push images&lt;br&gt;&lt;/b&gt;" style="text;html=1;strokeColor=#6c8ebf;fillColor=#dae8fc;align=center;verticalAlign=middle;whiteSpace=wrap;rounded=0;" parent="1" vertex="1">
          <mxGeometry x="852" y="303" width="88" height="32" as="geometry" />
        </mxCell>
        <mxCell id="FkkPFLlIcoBWppN_FDq2-60" value="&lt;b&gt;Fail&lt;/b&gt;" style="text;html=1;strokeColor=#FF0000;fillColor=#E8201A;align=center;verticalAlign=middle;whiteSpace=wrap;rounded=0;fontColor=#ffffff;" parent="1" vertex="1">
          <mxGeometry x="468" y="96" width="40" height="16" as="geometry" />
        </mxCell>
        <mxCell id="FkkPFLlIcoBWppN_FDq2-69" value="&lt;b&gt;Fail&lt;/b&gt;" style="text;html=1;strokeColor=#FF0000;fillColor=#E8201A;align=center;verticalAlign=middle;whiteSpace=wrap;rounded=0;fontColor=#ffffff;" parent="1" vertex="1">
          <mxGeometry x="468" y="192" width="40" height="16" as="geometry" />
        </mxCell>
        <mxCell id="FkkPFLlIcoBWppN_FDq2-72" value="&lt;b&gt;Fail&lt;/b&gt;" style="text;html=1;strokeColor=#FF0000;fillColor=#E8201A;align=center;verticalAlign=middle;whiteSpace=wrap;rounded=0;fontColor=#ffffff;" parent="1" vertex="1">
          <mxGeometry x="468" y="284" width="40" height="16" as="geometry" />
        </mxCell>
        <mxCell id="J5Gs9Op7dkJU3k7fwKM5-40" value="&lt;b&gt;Pass&lt;/b&gt;" style="text;html=1;strokeColor=#00D100;fillColor=#4CAF50;align=center;verticalAlign=middle;whiteSpace=wrap;rounded=0;fontColor=#ffffff;" parent="1" vertex="1">
          <mxGeometry x="514" y="284" width="40" height="16" as="geometry" />
        </mxCell>
        <mxCell id="HxBGHe7AEGFNNY11KMtz-4" value="" style="endArrow=classic;html=1;rounded=0;strokeWidth=3;strokeColor=#0080FF;entryX=1;entryY=0.5;entryDx=0;entryDy=0;exitX=0.25;exitY=1;exitDx=0;exitDy=0;startArrow=none;" parent="1" source="HxBGHe7AEGFNNY11KMtz-6" target="J5Gs9Op7dkJU3k7fwKM5-48" edge="1">
          <mxGeometry width="50" height="50" relative="1" as="geometry">
            <mxPoint x="752" y="150" as="sourcePoint" />
            <mxPoint x="802" y="100" as="targetPoint" />
            <Array as="points">
              <mxPoint x="731" y="48" />
            </Array>
          </mxGeometry>
        </mxCell>
        <mxCell id="HxBGHe7AEGFNNY11KMtz-5" value="&lt;font color=&quot;#0080FF&quot;&gt;&lt;b&gt;Vault&lt;/b&gt;&lt;/font&gt;" style="text;html=1;strokeColor=none;fillColor=none;align=center;verticalAlign=middle;whiteSpace=wrap;rounded=0;" parent="1" vertex="1">
          <mxGeometry x="724" y="-92" width="60" height="30" as="geometry" />
        </mxCell>
        <mxCell id="HxBGHe7AEGFNNY11KMtz-6" value="&lt;b&gt;Credentials&lt;/b&gt;" style="text;html=1;strokeColor=#6c8ebf;fillColor=#dae8fc;align=center;verticalAlign=middle;whiteSpace=wrap;rounded=0;" parent="1" vertex="1">
          <mxGeometry x="708" y="-12" width="92" height="24" as="geometry" />
        </mxCell>
        <mxCell id="HxBGHe7AEGFNNY11KMtz-8" value="" style="endArrow=none;html=1;rounded=0;strokeWidth=3;strokeColor=#0080FF;entryX=0.5;entryY=1;entryDx=0;entryDy=0;exitX=0.5;exitY=0;exitDx=0;exitDy=0;" parent="1" edge="1">
          <mxGeometry width="50" height="50" relative="1" as="geometry">
            <mxPoint x="754" y="-20" as="sourcePoint" />
            <mxPoint x="754" y="-20" as="targetPoint" />
          </mxGeometry>
        </mxCell>
        <mxCell id="HxBGHe7AEGFNNY11KMtz-9" value="" style="endArrow=classic;html=1;rounded=0;strokeColor=#0080FF;strokeWidth=3;fontFamily=Helvetica;startArrow=none;exitX=1;exitY=0.5;exitDx=0;exitDy=0;entryX=0.5;entryY=0;entryDx=0;entryDy=0;" parent="1" source="HxBGHe7AEGFNNY11KMtz-6" target="FkkPFLlIcoBWppN_FDq2-32" edge="1">
          <mxGeometry width="50" height="50" relative="1" as="geometry">
            <mxPoint x="312" y="54" as="sourcePoint" />
            <mxPoint x="1004" y="13" as="targetPoint" />
            <Array as="points">
              <mxPoint x="1164" />
            </Array>
          </mxGeometry>
        </mxCell>
        <mxCell id="HxBGHe7AEGFNNY11KMtz-10" value="" style="endArrow=none;html=1;rounded=0;strokeWidth=3;strokeColor=#0080FF;exitX=0.5;exitY=0;exitDx=0;exitDy=0;entryX=0.5;entryY=1;entryDx=0;entryDy=0;" parent="1" source="HxBGHe7AEGFNNY11KMtz-6" target="wQ3Wf0w0gqPm7qD4FIJZ-1" edge="1">
          <mxGeometry width="50" height="50" relative="1" as="geometry">
            <mxPoint x="876" y="-84" as="sourcePoint" />
            <mxPoint x="600" y="-96" as="targetPoint" />
          </mxGeometry>
        </mxCell>
        <mxCell id="SulHl8hZRRqjcG4e_9Le-1" value="" style="shape=image;imageAspect=0;aspect=fixed;verticalLabelPosition=bottom;verticalAlign=top;image=https://raw.githubusercontent.com/vital987/vital987/master/assets/github.svg;imageBackground=none;" parent="1" vertex="1">
          <mxGeometry x="364" y="26" width="48" height="48" as="geometry" />
        </mxCell>
        <mxCell id="wQ3Wf0w0gqPm7qD4FIJZ-1" value="" style="shape=image;imageAspect=0;aspect=fixed;verticalLabelPosition=bottom;verticalAlign=top;image=data:image/svg+xml,PHN2ZyBwcmVzZXJ2ZUFzcGVjdFJhdGlvPSJ4TWlkWU1pZCIgeG1sbnM9Imh0dHA6Ly93d3cudzMub3JnLzIwMDAvc3ZnIiB2ZXJzaW9uPSIxLjEiIHZpZXdCb3g9Ii0yLjg0MjE3MDk0MzA0MDQwMDdlLTEzIC0xLjQyMTA4NTQ3MTUyMDIwMDRlLTE0IDI1NiAyNTYiIGhlaWdodD0iMjU2IiB3aWR0aD0iMjU2Ij4mI3hhOyAgICA8dGl0bGU+VmF1bHQ8L3RpdGxlPiYjeGE7ICAgIDxnPiYjeGE7ICAgICAgICA8cGF0aCBmaWxsPSIjRkZEODE0IiBkPSJNLTIuODQyMTcwOTRlLTEzLC0xLjQyMTA4NTQ3ZS0xNCBMMTI3LjU1OTQ0OSwyNTYgTDI1NiwtMS40MjEwODU0N2UtMTQgTC0yLjg0MjE3MDk0ZS0xMywtMS40MjEwODU0N2UtMTQgWiBNMTQyLjY5ODM3Myw1MS4zODQyMzAzIEwxNTcuNTU2OTQ2LDUxLjM4NDIzMDMgTDE1Ny41NTY5NDYsNjYuMjQyODAzNSBMMTQyLjY5ODM3Myw2Ni4yNDI4MDM1IEwxNDIuNjk4MzczLDUxLjM4NDIzMDMgWiBNMTEzLjE0MTQyNywxMTAuNzM4NDIzIEw5OC4zMjI5MDM2LDExMC43Mzg0MjMgTDk4LjMyMjkwMzYsOTUuOTE5ODk5OSBMMTEzLjE0MTQyNyw5NS45MTk4OTk5IEwxMTMuMTQxNDI3LDExMC43Mzg0MjMgWiBNMTEzLjE0MTQyNyw4OC40NzA1ODgyIEw5OC4zMjI5MDM2LDg4LjQ3MDU4ODIgTDk4LjMyMjkwMzYsNzMuNjkyMTE1MSBMMTEzLjE0MTQyNyw3My42OTIxMTUxIEwxMTMuMTQxNDI3LDg4LjQ3MDU4ODIgWiBNMTEzLjE0MTQyNyw2Ni4yNDI4MDM1IEw5OC4zMjI5MDM2LDY2LjI0MjgwMzUgTDk4LjMyMjkwMzYsNTEuMzg0MjMwMyBMMTEzLjE0MTQyNyw1MS4zODQyMzAzIEwxMTMuMTQxNDI3LDY2LjI0MjgwMzUgWiBNMTM1LjU2OTQ2MiwxMzMuMDA2MjU4IEwxMjAuNzUwOTM5LDEzMy4wMDYyNTggTDEyMC43NTA5MzksMTE4LjE0NzY4NSBMMTM1LjU2OTQ2MiwxMTguMTQ3Njg1IEwxMzUuNTY5NDYyLDEzMy4wMDYyNTggWiBNMTM1LjU2OTQ2MiwxMTAuNzM4NDIzIEwxMjAuNzUwOTM5LDExMC43Mzg0MjMgTDEyMC43NTA5MzksOTUuOTE5ODk5OSBMMTM1LjU2OTQ2Miw5NS45MTk4OTk5IEwxMzUuNTY5NDYyLDExMC43Mzg0MjMgWiBNMTM1LjU2OTQ2Miw4OC40NzA1ODgyIEwxMjAuNzUwOTM5LDg4LjQ3MDU4ODIgTDEyMC43NTA5MzksNzMuNjkyMTE1MSBMMTM1LjU2OTQ2Miw3My42OTIxMTUxIEwxMzUuNTY5NDYyLDg4LjQ3MDU4ODIgWiBNMTM1LjU2OTQ2Miw2Ni4yNDI4MDM1IEwxMjAuNzUwOTM5LDY2LjI0MjgwMzUgTDEyMC43NTA5MzksNTEuMzg0MjMwMyBMMTM1LjU2OTQ2Miw1MS4zODQyMzAzIEwxMzUuNTY5NDYyLDY2LjI0MjgwMzUgWiBNMTQyLjY5ODM3Myw3My42OTIxMTUxIEwxNTcuNTU2OTQ2LDczLjY5MjExNTEgTDE1Ny41NTY5NDYsODguNTEwNjM4MyBMMTQyLjY5ODM3Myw4OC41MTA2MzgzIEwxNDIuNjk4MzczLDczLjY5MjExNTEgWiBNMTQyLjY5ODM3MywxMTAuNzc4NDczIEwxNDIuNjk4MzczLDk1Ljk1OTk0OTkgTDE1Ny41NTY5NDYsOTUuOTU5OTQ5OSBMMTU3LjU1Njk0NiwxMTAuNzc4NDczIEwxNDIuNjk4MzczLDExMC43Nzg0NzMgWiIvPiYjeGE7ICAgIDwvZz4mI3hhOzwvc3ZnPg==;" parent="1" vertex="1">
          <mxGeometry x="730" y="-68" width="48" height="48" as="geometry" />
        </mxCell>
      </root>
    </mxGraphModel>
  </diagram>
</mxfile>
